<?xml version="1.0" encoding="UTF-8"?>
<!-- Generator: visioncortex VTracer 0.6.3 -->
<svg version="1.1" xmlns="http://www.w3.org/2000/svg" width="1280" height="800">
<path d="M0 0 C0.92 0.19 1.83 0.39 2.77 0.59 C23.91 5.26 43.5 13.14 61 26 C61.69 26.49 62.39 26.98 63.1 27.49 C75.75 36.47 88.1 48.34 97 61 C98.08 62.48 99.16 63.96 100.25 65.44 C100.73 66.1 101.21 66.75 101.7 67.43 C104.05 70.27 106.63 70.3 110.12 70.81 C124.43 73.19 136.35 76.9 149 84 C150.46 84.8 150.46 84.8 151.96 85.62 C172.16 97.51 188.28 118.26 194.38 140.88 C196.67 149.96 197.19 158.61 197.19 167.94 C197.19 169.03 197.19 170.13 197.19 171.25 C197.13 180.29 196.37 189.08 195 198 C196.02 198.74 197.05 199.47 198.11 200.23 C199.47 201.22 200.83 202.2 202.19 203.19 C202.86 203.67 203.53 204.15 204.23 204.65 C208.16 207.51 211.61 210.49 215 214 C216.2 214.97 217.41 215.93 218.62 216.88 C234.3 230.57 243.44 251.4 249 271 C249.19 271.66 249.37 272.31 249.57 272.99 C257.74 303.43 250.67 337.94 235.23 364.85 C231.72 370.71 227.49 375.86 223 381 C222.14 382.06 222.14 382.06 221.26 383.14 C204.68 403.25 181.11 412.02 156.9 419.04 C149.08 421.33 141.59 423.85 134.1 427.09 C122.45 432.12 110.72 437.05 98.88 441.62 C97.68 442.09 96.48 442.56 95.24 443.04 C91.85 444.04 89.5 444.48 86 444 C80.8 441.1 79.48 437.09 77.62 431.75 C77.02 430.13 76.42 428.51 75.81 426.9 C74.92 424.51 74.04 422.12 73.16 419.72 C72.37 417.59 71.53 415.48 70.69 413.38 C70.22 412.15 69.75 410.92 69.26 409.65 C64.51 400.53 53.25 395.61 44.56 391.06 C43.49 390.49 42.41 389.91 41.31 389.32 C35.8 386.34 35.8 386.34 30 384 C30.2 384.59 30.41 385.18 30.62 385.79 C30.89 386.58 31.16 387.37 31.44 388.19 C31.7 388.96 31.97 389.74 32.25 390.54 C34.67 398.44 35.95 408.62 32.56 416.38 C28.06 423.78 21.27 428.73 13 431 C1.1 433.08 -9.21 430.72 -19.27 424.21 C-29.57 416.97 -36.56 406.95 -39.55 394.76 C-40.15 391.1 -40.18 387.59 -40.01 383.9 C-40 382.96 -40 382.96 -40 382 C-40.33 381.67 -40.66 381.34 -41 381 C-56.46 381.06 -75.7 381.4 -90 388 C-90.33 388.66 -90.66 389.32 -91 390 C-89.92 391.99 -88.62 393.78 -87.32 395.64 C-84.12 401.36 -83.64 407.17 -83.62 413.56 C-83.6 414.29 -83.58 415.02 -83.55 415.77 C-83.52 420.98 -84.62 423.84 -88 428 C-94.05 433.91 -101.22 436.58 -109.56 437.31 C-121.39 437.14 -131.42 429.97 -139.34 421.87 C-141 420 -141 420 -143 417 C-146.35 417.64 -148.7 418.92 -151.56 420.75 C-167.46 430.49 -183.36 433.38 -201.8 430.38 C-212.23 427.45 -224.35 421.97 -231.51 413.64 C-233.04 411.85 -233.04 411.85 -235.4 410.2 C-238.41 407.65 -240.43 404.81 -242.5 401.5 C-242.89 400.89 -243.28 400.27 -243.68 399.64 C-253.42 383.86 -257.04 366.45 -255.19 348.14 C-254.89 344.42 -254.89 344.42 -256 341 C-256.69 340.72 -257.38 340.45 -258.1 340.16 C-262.35 338.46 -265.15 335.5 -268.44 332.38 C-269.4 331.49 -269.4 331.49 -270.38 330.58 C-274.82 326.41 -278.51 321.99 -282 317 C-282.7 316 -283.4 315 -284.12 313.97 C-289.65 305.4 -293.17 296.77 -296 287 C-296.34 285.84 -296.68 284.68 -297.04 283.48 C-299.27 274.06 -299.31 264.57 -299.38 254.94 C-299.38 254.26 -299.39 253.59 -299.4 252.89 C-299.51 241.11 -298.51 229.04 -293.86 218.06 C-293.19 216.45 -292.6 214.81 -292.05 213.16 C-285.75 194.93 -272.51 177.68 -255 169 C-253.7 168.53 -252.39 168.07 -251.08 167.63 C-243.84 165.59 -243.84 165.59 -238.66 160.67 C-238.25 158.84 -237.91 156.98 -237.63 155.12 C-235.39 144.02 -226.6 133.81 -218 127 C-209.39 121.3 -200.06 116.58 -189.5 116.88 C-188.64 116.89 -187.79 116.91 -186.91 116.93 C-186.28 116.95 -185.65 116.98 -185 117 C-185 116.34 -185 115.68 -185 115 C-184.01 115 -183.02 115 -182 115 C-181.91 113.45 -181.91 113.45 -181.81 111.88 C-179.36 92.98 -167.38 75.41 -157 60 C-156.34 59.01 -155.68 58.02 -155 57 C-154.34 57 -153.68 57 -153 57 C-152.75 56.43 -152.5 55.87 -152.24 55.28 C-139.45 31.72 -107.11 13.5 -82.44 5.81 C-78.98 4.8 -75.49 3.89 -72 3 C-70.58 2.62 -69.16 2.23 -67.73 1.85 C-46.69 -3.72 -21.39 -4.6 0 0 Z M28 381 C28.99 382.49 28.99 382.49 30 384 C30 383.01 30 382.02 30 381 C29.34 381 28.68 381 28 381 Z M27 382 C28 384 28 384 28 384 Z " fill="#101502" transform="translate(753,226)"/>
<path d="M0 0 C0.7 0.15 1.4 0.3 2.11 0.46 C12.07 2.64 21.22 6.18 30.5 10.38 C31.49 10.82 32.48 11.27 33.5 11.73 C40.19 14.86 46.1 18.58 52 23 C53.43 24.07 53.43 24.07 54.89 25.16 C68.25 35.93 81.33 48.49 89.62 63.69 C91.49 66.78 91.87 66.96 95.61 68.12 C99.2 68.9 102.81 69.49 106.44 70.04 C129.91 73.56 149.11 83.04 164 102 C178.36 121.72 185.56 143.44 181.81 167.95 C180.81 173.49 178.96 178.71 177.02 183.99 C175.84 186.94 175.84 186.94 176 190 C177 190.52 178.01 191.04 179.04 191.58 C205.05 205.44 224.45 228.36 233.16 256.77 C237.72 274.24 238.86 292.25 235 310 C234.76 311.18 234.51 312.35 234.26 313.56 C231.91 323.52 227.96 332.1 223 341 C222.45 341.99 221.91 342.98 221.35 344 C213.21 357.71 199.54 372.17 185 379 C184.01 379 183.02 379 182 379 C182 378.34 182 377.68 182 377 C181.34 377 180.68 377 180 377 C178.51 373.32 177.03 369.63 175.56 365.94 C175.14 364.9 174.72 363.86 174.29 362.79 C170.88 354.2 169.92 346.79 169.71 337.6 C168.9 303.28 162.71 262.18 141.69 233.56 C137.27 229.35 132.67 227.89 126.62 227.56 C119.86 227.79 113.93 230.99 108 234 C107.13 233.38 106.27 232.76 105.38 232.12 C99.33 228.32 94.03 227.35 87 228 C83.59 228.88 83.59 228.88 81 230 C79.98 226.82 80.06 224.71 80.82 221.47 C81.02 220.6 81.23 219.74 81.44 218.84 C81.66 217.92 81.89 217.01 82.12 216.06 C82.35 215.12 82.58 214.18 82.82 213.21 C84.39 206.92 86.28 201.02 88.89 195.08 C89.86 192.38 90.38 190.03 90.86 187.21 C91.88 181.85 93.89 177.51 96.5 172.75 C96.94 171.93 97.38 171.12 97.83 170.28 C103.29 160.35 109.49 150.58 118 143 C125.64 142.75 132.66 146.03 138.56 150.75 C142.36 153.67 145.33 153.41 150 153 C150.9 149.58 151.12 147.42 150.12 144 C144.26 135.72 134.06 132.22 124.47 130.29 C117.89 129.39 117.89 129.39 111.65 131.16 C109.52 132.96 107.79 134.86 106 137 C105.26 137.76 104.53 138.52 103.77 139.31 C94.26 149.28 85.4 162.8 81 176 C76.83 175.42 73.17 174.46 69.25 172.93 C68.18 172.51 67.1 172.09 65.99 171.66 C64.86 171.22 63.73 170.77 62.56 170.31 C61.41 169.86 60.25 169.41 59.06 168.94 C56.76 168.04 54.46 167.14 52.16 166.24 C49.45 165.17 46.72 164.13 43.99 163.11 C42.64 162.59 41.29 162.08 39.94 161.56 C38.79 161.13 37.65 160.7 36.46 160.25 C34 159 34 159 33 156 C34.19 153.22 35.44 150.65 36.88 148 C37.28 147.24 37.69 146.48 38.12 145.69 C43.54 135.87 50.7 127.54 59 120 C59.86 119.15 59.86 119.15 60.73 118.28 C64.66 116.06 68.79 116.48 73.05 117.48 C75.1 118.1 77.11 118.78 79.12 119.5 C83.8 121.15 87.98 122.54 93 122 C95.29 120.13 95.29 120.13 95.31 117.12 C94.95 113.5 94.55 112.55 92 110 C89.34 108.94 86.86 108.08 84.12 107.31 C83.06 106.99 83.06 106.99 81.98 106.67 C74.46 104.45 66.82 102.42 59 104 C54.14 106.82 50.15 110.23 46 114 C45.33 114.57 44.66 115.14 43.98 115.73 C33.87 124.95 24.24 139.77 20.1 152.85 C19 155 19 155 16.71 155.93 C13.81 156.33 10.92 156.72 8 157 C7.16 157.08 6.32 157.17 5.45 157.25 C1.59 157.46 -0.44 157.34 -3.81 155.31 C-6 153 -6 153 -7.94 150.5 C-12.71 144.71 -18.76 142.83 -25.64 140.29 C-28.66 139.13 -31.57 137.87 -34.5 136.5 C-38.41 134.68 -42.34 133.08 -46.38 131.56 C-50.85 129.88 -55.18 128.04 -59.5 126 C-64.8 123.51 -70.16 121.35 -75.64 119.3 C-80.52 117.41 -85.31 115.32 -90.1 113.23 C-98.64 109.6 -106.88 110.74 -115.69 113 C-116.55 113.22 -117.41 113.44 -118.3 113.67 C-140.89 119.84 -156.5 135.15 -168 155 C-168.38 155.94 -168.38 155.94 -168.76 156.9 C-169.66 158.95 -170.43 160.39 -172 162 C-175.38 163.19 -178.75 163.38 -182.31 163.62 C-200.75 165.51 -216.99 171.58 -231 184 C-231.6 184.51 -232.2 185.02 -232.82 185.54 C-237.02 189.35 -240.26 193.88 -243.5 198.5 C-243.96 199.13 -244.42 199.76 -244.89 200.41 C-247.12 203.71 -247.99 205.51 -248.11 209.59 C-246.79 213.66 -244.72 216.17 -241.75 219.12 C-241.27 219.62 -240.79 220.12 -240.3 220.64 C-237.99 223.03 -235.62 225.38 -233.27 227.73 C-229.14 231.87 -229.14 231.87 -228 235 C-228.56 236.96 -228.56 236.96 -229.44 239.19 C-231.51 244.61 -230.88 248.57 -229 254 C-226.91 257.82 -224.4 261.26 -221.81 264.75 C-220.36 266.77 -218.91 268.79 -217.46 270.82 C-216.72 271.84 -215.98 272.86 -215.21 273.91 C-211.72 278.78 -208.36 283.73 -205 288.69 C-204.37 289.61 -203.74 290.54 -203.09 291.5 C-198.69 297.97 -194.3 304.46 -190 311 C-189.29 312.09 -189.29 312.09 -188.56 313.19 C-182.13 322.96 -175.82 332.77 -169.88 342.84 C-168.28 345.53 -166.63 348.18 -164.94 350.81 C-163 354 -163 354 -163 356 C-159.14 357.82 -156.26 358.5 -152 358 C-150.76 357.44 -149.54 356.83 -148.34 356.19 C-144.12 354.02 -139.81 352.25 -135.38 350.56 C-134.59 350.26 -133.8 349.96 -132.99 349.65 C-126.03 346.99 -119.05 344.4 -112 342 C-111.32 341.77 -110.65 341.54 -109.95 341.3 C-90.27 334.65 -70.07 329.58 -49.39 327.31 C-47.07 327.01 -44.81 326.58 -42.52 326.11 C-35.73 324.92 -31.15 324.88 -25.31 328.89 C-19.2 333.61 -13.63 338.79 -9 345 C-10.61 345.27 -10.61 345.27 -12.25 345.55 C-13.69 345.8 -15.13 346.06 -16.56 346.31 C-17.27 346.43 -17.97 346.55 -18.7 346.67 C-22.22 347.3 -25.01 348 -28.27 349.55 C-33.28 351.84 -38.71 351.63 -44.12 351.88 C-63.63 353.06 -83.19 355.78 -101.71 362.18 C-105.3 363.08 -107.44 362.88 -111 362 C-111.73 361.82 -112.45 361.65 -113.2 361.46 C-114.22 361.2 -114.22 361.2 -115.25 360.94 C-124.47 358.95 -130.95 359.55 -139.36 364.18 C-145.36 368.32 -146.88 373.05 -148.25 380 C-149.85 386.97 -153.1 390.16 -159 394 C-172.09 401.7 -184.86 405.18 -200 401.88 C-213.22 398.2 -226.17 389.36 -234 378 C-243.56 361.04 -245.46 343.43 -240.42 324.88 C-239.96 323.25 -239.48 321.62 -239 320 C-239.66 320 -240.32 320 -241 320 C-241 319.34 -241 318.68 -241 318 C-241.78 317.79 -242.57 317.59 -243.38 317.38 C-252.7 313.84 -259.94 307.94 -267 301 C-267.65 300.36 -268.3 299.72 -268.97 299.07 C-282.81 284.44 -287.42 261.23 -287.31 241.75 C-287.31 240.65 -287.3 239.55 -287.3 238.42 C-286.93 214.22 -278.33 191.99 -261 175 C-251.67 166.15 -239.81 161.75 -227 162 C-227.05 161.27 -227.09 160.55 -227.14 159.8 C-227.56 148.12 -224.51 138.06 -217 129 C-209.75 121.37 -200.36 117.38 -190 116 C-184.64 115.93 -179.32 116.44 -174 117 C-173.71 115.74 -173.42 114.48 -173.12 113.19 C-163.81 73.92 -143.2 40.31 -108.55 18.45 C-76.43 -1.17 -36.82 -8.55 0 0 Z " fill="#E7D9C8" transform="translate(754,240)"/>
<path d="M0 0 C6.21 1.35 11.8 3.91 16.75 7.88 C20.55 10.79 23.51 10.53 28.19 10.12 C28.19 10.79 28.19 11.44 28.19 12.12 C29.18 12.45 30.17 12.79 31.19 13.12 C32.87 15.07 34.41 17 35.94 19.06 C36.6 19.94 36.6 19.94 37.28 20.84 C40.48 25.1 43.57 29.44 46.58 33.84 C48.65 36.79 50.87 39.62 53.12 42.43 C54.19 44.12 54.19 44.12 54.19 47.12 C55.19 47.65 56.2 48.17 57.23 48.71 C83.24 62.57 102.64 85.49 111.34 113.89 C115.91 131.37 117.05 149.38 113.19 167.12 C112.94 168.3 112.7 169.48 112.45 170.69 C110.1 180.65 106.15 189.22 101.19 198.12 C100.64 199.11 100.1 200.1 99.54 201.12 C91.39 214.84 77.73 229.3 63.19 236.12 C62.2 236.12 61.21 236.12 60.19 236.12 C60.19 235.47 60.19 234.81 60.19 234.12 C59.53 234.12 58.87 234.12 58.19 234.12 C56.7 230.44 55.22 226.75 53.75 223.06 C53.33 222.02 52.91 220.99 52.47 219.92 C49.07 211.33 48.11 203.92 47.9 194.72 C47.09 160.41 40.9 119.31 19.88 90.69 C15.46 86.48 10.86 85.02 4.81 84.69 C-1.95 84.91 -7.89 88.11 -13.81 91.12 C-14.68 90.51 -15.54 89.89 -16.44 89.25 C-22.49 85.44 -27.78 84.47 -34.81 85.12 C-38.23 86.01 -38.23 86.01 -40.81 87.12 C-41.83 83.94 -41.76 81.84 -40.99 78.6 C-40.79 77.73 -40.59 76.86 -40.38 75.97 C-40.15 75.05 -39.92 74.13 -39.69 73.19 C-39.46 72.25 -39.23 71.3 -39 70.33 C-37.43 64.05 -35.53 58.14 -32.93 52.21 C-31.95 49.51 -31.43 47.15 -30.95 44.34 C-29.93 38.98 -27.93 34.63 -25.31 29.88 C-24.65 28.65 -24.65 28.65 -23.98 27.4 C-9.07 0.3 -9.07 0.3 0 0 Z " fill="#E2D1BB" transform="translate(875.8125,382.875)"/>
<path d="M0 0 C3.5 1.21 5.22 3.68 7.1 6.73 C9.01 10.83 10.58 15.05 12.16 19.29 C13.12 21.81 14.09 24.33 15.05 26.85 C15.3 27.49 15.55 28.14 15.8 28.81 C18.52 35.88 21.43 42.86 24.35 49.85 C27.75 58.01 31.13 66.18 34.35 74.41 C34.64 75.14 34.92 75.87 35.22 76.63 C37.1 81.48 37.1 81.48 37.1 83.73 C38.7 83.98 40.3 84.2 41.91 84.41 C42.8 84.54 43.7 84.67 44.62 84.8 C47.08 84.91 47.08 84.91 48.98 83.75 C50.82 80.42 49.96 77.25 49.1 73.73 C48.11 70.73 46.92 67.86 45.66 64.98 C45.35 64.24 45.03 63.49 44.71 62.73 C43.55 59.98 42.38 57.27 41 54.63 C39.87 52.25 39.98 50.76 40.29 48.16 C40.36 47.4 40.44 46.64 40.52 45.85 C41.21 43.33 42.07 42.34 44.1 40.73 C46.97 39.74 48.69 39.64 51.66 40.29 C56.72 43.27 58.76 48.9 60.79 54.19 C61.26 55.4 61.73 56.62 62.21 57.87 C62.7 59.13 63.18 60.4 63.66 61.66 C65.46 66.35 67.28 71.04 69.1 75.73 C69.4 76.51 69.71 77.3 70.02 78.11 C71.47 81.77 71.47 81.77 74.47 84.23 C77.44 84.79 79.25 84.73 82.1 83.73 C84.23 80.52 84.33 79.55 83.68 75.89 C82.15 70.16 79.57 64.71 77.25 59.26 C74.61 52.83 72.41 47.12 75.04 40.29 C78.36 37.77 82.04 37.94 86.1 37.73 C92.74 46.17 95.91 56.01 99.57 65.97 C100.39 68.19 101.23 70.41 102.07 72.63 C102.32 73.31 102.56 74 102.82 74.7 C103.88 77.49 104.62 79.39 107.1 81.15 C109.94 81.97 112.15 82.1 115.1 81.73 C117.2 80.21 117.2 80.21 118.1 77.73 C117.68 71.99 115.3 66.97 113.1 61.73 C107.48 48.37 107.48 48.37 108.72 43.04 C110.51 40.04 111.85 39.03 115.1 37.73 C118.66 37.66 118.66 37.66 122.1 38.73 C126.66 44.22 128.91 51.09 131.54 57.66 C132.27 59.49 132.27 59.49 133.01 61.35 C140.3 79.63 144.43 96.6 146.29 116.16 C146.37 117.05 146.45 117.94 146.54 118.85 C147.38 128.57 147.27 138.04 146.1 147.73 C141.38 149.61 136.66 151.5 131.94 153.39 C131.01 153.76 130.09 154.13 129.14 154.51 C127 155.36 124.87 156.21 122.74 157.06 C115.72 159.86 108.71 162.7 101.71 165.56 C99.29 166.55 96.86 167.54 94.43 168.53 C92.77 169.21 91.12 169.89 89.46 170.57 C87.03 171.57 84.59 172.57 82.15 173.56 C81.05 174.01 81.05 174.01 79.92 174.48 C72.79 177.37 72.79 177.37 69.1 177.73 C66.77 176.17 66.77 176.17 64.29 173.85 C58.08 168.48 51.41 164.74 44.21 160.87 C40.67 158.95 37.17 156.96 33.66 154.98 C32.41 154.27 31.16 153.57 29.91 152.87 C29.3 152.52 28.68 152.17 28.05 151.82 C26.68 151.05 25.31 150.3 23.93 149.55 C18.56 146.62 13.43 143.45 8.35 140.04 C7.57 139.52 6.79 139 5.99 138.46 C-3.93 131.75 -13.24 124.36 -22.46 116.73 C-24.16 115.33 -25.91 113.99 -27.68 112.68 C-29.9 110.73 -29.9 110.73 -30.46 107.29 C-29.81 103.15 -29.01 101.51 -25.9 98.73 C-21.44 97.34 -18.76 97.83 -14.6 99.92 C-13.64 100.45 -13.64 100.45 -12.65 100.98 C-11.63 101.51 -11.63 101.51 -10.58 102.05 C-2.12 106.53 6.02 111.59 14.1 116.73 C14.71 117.1 15.32 117.48 15.95 117.87 C17.37 118.77 18.74 119.74 20.1 120.73 C20.1 121.39 20.1 122.05 20.1 122.73 C21.72 122.78 23.35 122.82 24.97 122.85 C25.88 122.87 26.78 122.9 27.71 122.92 C30.29 122.97 30.29 122.97 32.1 120.73 C33.13 113.74 30.08 108.19 27.29 101.91 C26.27 99.57 25.25 97.23 24.23 94.89 C23.71 93.7 23.19 92.51 22.65 91.28 C20.26 85.8 17.92 80.3 15.6 74.79 C15.15 73.73 14.7 72.66 14.23 71.57 C10.42 62.54 6.71 53.47 3.03 44.39 C-0.09 36.69 -3.27 29.02 -6.53 21.37 C-8.93 15.72 -10.77 10.95 -9.9 4.73 C-7.43 0.6 -4.68 0.24 0 0 Z " fill="#BA9E77" transform="translate(762.90234375,444.2734375)"/>
<path d="M0 0 C1.18 -0.02 1.18 -0.02 2.39 -0.04 C20.78 -0.27 37.82 0.33 55.66 5.27 C56.43 5.48 57.2 5.68 57.99 5.89 C79.16 11.56 103.49 21.92 118.66 38.27 C118.66 38.6 118.66 38.93 118.66 39.27 C117.59 39.16 116.51 39.04 115.4 38.92 C107.17 38.31 101.1 38.44 94.54 43.84 C92.51 45.59 90.59 47.4 88.66 49.27 C87.67 50.13 87.67 50.13 86.66 51 C76.53 60.15 66.89 75.09 62.76 88.12 C61.66 90.27 61.66 90.27 59.38 91.2 C56.47 91.6 53.58 91.99 50.66 92.27 C49.82 92.36 48.98 92.44 48.11 92.53 C44.25 92.73 42.23 92.61 38.85 90.59 C36.66 88.27 36.66 88.27 34.73 85.77 C29.95 79.99 23.9 78.1 17.03 75.56 C14.01 74.4 11.09 73.14 8.16 71.77 C4.26 69.96 0.32 68.35 -3.71 66.84 C-8.18 65.15 -12.51 63.31 -16.84 61.27 C-22.14 58.78 -27.5 56.63 -32.98 54.57 C-37.86 52.68 -42.64 50.6 -47.44 48.51 C-55.98 44.87 -64.22 46.02 -73.02 48.27 C-73.89 48.49 -74.75 48.71 -75.64 48.94 C-98.22 55.11 -113.84 70.42 -125.34 90.27 C-125.56 90.9 -125.78 91.52 -126.01 92.16 C-126.89 94.35 -127.61 95.65 -129.34 97.27 C-133.53 98.59 -137.72 98.89 -142.09 99.21 C-143.26 99.32 -144.43 99.43 -145.64 99.55 C-148.54 99.82 -151.44 100.06 -154.34 100.27 C-153.35 99.78 -153.35 99.78 -152.34 99.27 C-152.01 98.28 -151.68 97.29 -151.34 96.27 C-149.7 94.98 -149.7 94.98 -147.65 93.63 C-142.99 90.27 -140.32 86.37 -137.34 81.52 C-136.3 79.91 -135.26 78.3 -134.22 76.7 C-133.73 75.93 -133.23 75.16 -132.72 74.37 C-129.89 70.09 -126.69 66.15 -123.34 62.27 C-122.64 61.47 -121.95 60.67 -121.23 59.84 C-90.88 25.46 -46.79 0.68 0 0 Z " fill="#E2D1BB" transform="translate(711.3359375,304.7265625)"/>
<path d="M0 0 C3.3 4.02 6.32 8.19 9.31 12.44 C9.83 13.17 10.34 13.89 10.87 14.64 C17.68 24.36 24.35 34.17 31 44 C31.41 44.6 31.81 45.2 32.23 45.82 C34.51 49.2 36.76 52.6 39 56 C39.71 57.09 39.71 57.09 40.44 58.19 C46.87 67.96 53.18 77.77 59.12 87.84 C60.72 90.53 62.37 93.18 64.06 95.81 C66 99 66 99 66 101 C69.86 102.82 72.74 103.5 77 103 C78.24 102.44 79.46 101.83 80.66 101.19 C84.88 99.02 89.19 97.25 93.62 95.56 C94.41 95.26 95.2 94.96 96.01 94.65 C102.97 91.99 109.95 89.4 117 87 C118.01 86.65 118.01 86.65 119.05 86.3 C138.73 79.65 158.93 74.58 179.61 72.31 C181.93 72.01 184.19 71.58 186.48 71.11 C193.27 69.92 197.85 69.88 203.69 73.89 C209.8 78.61 215.37 83.79 220 90 C218.93 90.18 217.85 90.36 216.75 90.55 C215.31 90.8 213.87 91.06 212.44 91.31 C211.38 91.49 211.38 91.49 210.3 91.67 C206.78 92.3 203.99 93 200.73 94.55 C195.72 96.84 190.29 96.63 184.88 96.88 C165.37 98.06 145.81 100.78 127.29 107.18 C123.7 108.08 121.56 107.88 118 107 C117.27 106.82 116.55 106.65 115.8 106.46 C115.12 106.29 114.45 106.12 113.75 105.94 C104.53 103.95 98.05 104.55 89.64 109.18 C83.64 113.32 82.12 118.05 80.75 125 C79.15 131.97 75.9 135.16 70 139 C56.91 146.7 44.14 150.18 29 146.88 C15.78 143.2 2.83 134.36 -5 123 C-14.56 106.04 -16.46 88.43 -11.42 69.88 C-10.96 68.25 -10.48 66.62 -10 65 C-10.66 65 -11.32 65 -12 65 C-13.18 61.45 -12.67 59.65 -12 56 C-11.84 53.95 -11.71 51.9 -11.61 49.85 C-10.57 31.65 -9.17 16.13 0 0 Z " fill="#E0CBAE" transform="translate(525,495)"/>
<path d="M0 0 C1.05 0.23 1.05 0.23 2.11 0.46 C12.07 2.64 21.22 6.18 30.5 10.38 C31.49 10.82 32.48 11.27 33.5 11.73 C40.19 14.86 46.1 18.58 52 23 C52.95 23.71 53.91 24.43 54.89 25.16 C65.82 33.98 77.16 44.22 85 56 C85 56.66 85 57.32 85 58 C80.57 57.39 77.03 55.63 73.12 53.56 C29.94 31.53 -16.62 21.58 -65 29 C-65.74 29.11 -66.49 29.22 -67.26 29.33 C-90.52 32.83 -113.06 41.38 -133.95 51.97 C-136.94 53.47 -139.86 54.84 -143 56 C-143.99 55.67 -144.98 55.34 -146 55 C-145.41 51.75 -144.44 50.04 -142.19 47.64 C-141.61 47.03 -141.04 46.41 -140.44 45.77 C-139.51 44.8 -139.51 44.8 -138.56 43.81 C-137.61 42.81 -137.61 42.81 -136.63 41.78 C-122.9 27.48 -107.99 17.21 -90 9 C-88.82 8.45 -87.64 7.91 -86.43 7.35 C-59.73 -4.18 -28.25 -6.56 0 0 Z " fill="#EEE6DE" transform="translate(754,240)"/>
<path d="M0 0 C6.56 7.41 6.74 17.63 7.19 27 C7.29 28.79 7.29 28.79 7.39 30.62 C7.61 38.96 7.61 38.96 5.87 41.92 C4.49 43.31 4.49 43.31 2 45 C2 44.01 2 43.02 2 42 C1.34 42 0.68 42 0 42 C0 41.34 0 40.68 0 40 C-1.2 40.08 -2.39 40.17 -3.62 40.25 C-8.09 40.27 -10.51 38.83 -14 36 C-16.46 33.54 -17 31.29 -18 28 C-22.18 28.25 -24.5 28.62 -27.88 31.19 C-30.29 34.38 -31 36.01 -31 40 C-29.64 43.22 -29.64 43.22 -28 46 C-28 46.66 -28 47.32 -28 48 C-26.08 48.19 -26.08 48.19 -24.12 48.38 C-20.25 48.75 -20.25 48.75 -18 51 C-18.31 54.16 -18.31 54.16 -19 58 C-19.26 59.85 -19.26 59.85 -19.54 61.75 C-20.02 65.16 -20.51 68.58 -21 72 C-28.89 74.39 -28.89 74.39 -32.69 73.06 C-34.72 71.25 -36.29 69.47 -38 67.38 C-39.93 65.04 -40.76 64.1 -43.62 62.94 C-46.47 63.01 -47.76 63.22 -50 65 C-51.18 67.88 -51.18 67.88 -52 71 C-53.57 75.02 -56.43 77.76 -59.44 80.75 C-59.93 81.26 -60.42 81.76 -60.92 82.29 C-62.22 83.59 -63.61 84.8 -65 86 C-65.99 86 -66.98 86 -68 86 C-69 83 -69 83 -68.96 80.91 C-68.93 78.32 -69.08 76.44 -70 74 C-72.39 72.28 -74.76 71.25 -77.48 70.13 C-80.84 68.63 -82.63 66.77 -85 64 C-85.99 64.5 -85.99 64.5 -87 65 C-87.33 70.61 -87.66 76.22 -88 82 C-85.03 82.99 -85.03 82.99 -82 84 C-81.33 85.33 -80.67 86.67 -80 88 C-78.02 88.73 -76.02 89.4 -74 90 C-74.13 93.4 -74.34 96.79 -74.56 100.19 C-74.6 101.15 -74.64 102.11 -74.67 103.1 C-75.18 110.01 -75.18 110.01 -77.51 112.81 C-80.1 114.81 -81.8 116.08 -85.15 115.86 C-98.29 112.64 -113.26 98.83 -121.56 88.71 C-123.08 86.82 -123.08 86.82 -125.5 84.81 C-127 83 -127 83 -126.79 80.63 C-125.44 76.14 -122.18 73.34 -119 70 C-118.45 69.39 -117.9 68.77 -117.33 68.14 C-110.43 60.73 -102.39 56.91 -92.94 53.69 C-92.19 53.43 -91.45 53.18 -90.68 52.92 C-85.47 51.23 -80.45 50.42 -75 50 C-74.3 49.92 -73.6 49.85 -72.88 49.77 C-70.07 49.57 -67.76 49.48 -65.38 51.12 C-64.88 51.57 -64.39 52.03 -63.88 52.5 C-61.22 55.27 -61.22 55.27 -57.75 55.44 C-54.86 55.25 -54.86 55.25 -53 53 C-52.8 49.53 -52.86 46.55 -53.71 43.18 C-54.37 35.89 -47.87 28.15 -43.33 22.67 C-34.08 12.05 -15.52 -5.25 0 0 Z " fill="#896742" transform="translate(649,366)"/>
<path d="M0 0 C0.7 -0 1.39 -0 2.11 -0.01 C14.48 -0 26.73 1.04 38.69 4.38 C39.41 4.58 40.14 4.78 40.89 4.98 C51.08 7.99 60.64 12.76 70.19 17.38 C70.19 22.02 69.49 22.68 66.69 26.19 C63.28 30.69 60.45 35.25 57.81 40.25 C57.31 41.2 57.31 41.2 56.8 42.16 C55.42 44.82 54.19 47.37 53.28 50.24 C52.19 52.38 52.19 52.38 49.9 53.3 C47 53.71 44.11 54.09 41.19 54.38 C40.35 54.46 39.5 54.54 38.64 54.63 C34.77 54.83 32.75 54.71 29.38 52.69 C27.19 50.38 27.19 50.38 25.25 47.88 C20.48 42.09 14.43 40.21 7.55 37.66 C4.53 36.51 1.62 35.24 -1.31 33.88 C-5.22 32.06 -9.15 30.45 -13.19 28.94 C-18.77 26.83 -24.14 24.4 -29.54 21.86 C-33.9 19.88 -38.35 18.2 -42.84 16.55 C-45.93 15.33 -48.86 13.9 -51.81 12.38 C-41.03 -0.19 -14.97 0 0 0 Z " fill="#E0CBAE" transform="translate(720.8125,342.625)"/>
<path d="M0 0 C0.92 0.19 1.83 0.39 2.77 0.59 C23.91 5.26 43.5 13.14 61 26 C61.69 26.49 62.39 26.98 63.1 27.49 C75.75 36.47 88.1 48.34 97 61 C98.08 62.48 99.16 63.96 100.25 65.44 C100.73 66.1 101.21 66.75 101.7 67.43 C104.05 70.27 106.63 70.3 110.12 70.81 C124.43 73.19 136.35 76.9 149 84 C150.46 84.8 150.46 84.8 151.96 85.62 C172.16 97.51 188.28 118.26 194.38 140.88 C196.67 149.96 197.19 158.61 197.19 167.94 C197.19 169.03 197.19 170.13 197.19 171.25 C197.13 180.29 196.37 189.08 195 198 C196.02 198.74 197.05 199.47 198.11 200.23 C199.47 201.22 200.83 202.2 202.19 203.19 C202.86 203.67 203.53 204.15 204.23 204.65 C208.16 207.51 211.61 210.49 215 214 C216.2 214.97 217.41 215.93 218.62 216.88 C234.3 230.57 243.44 251.4 249 271 C249.19 271.66 249.37 272.31 249.57 272.99 C257.74 303.43 250.67 337.94 235.23 364.85 C231.72 370.71 227.49 375.86 223 381 C222.43 381.71 221.85 382.41 221.26 383.14 C204.68 403.25 181.11 412.02 156.9 419.04 C149.08 421.33 141.59 423.85 134.1 427.09 C122.45 432.12 110.72 437.05 98.88 441.62 C97.68 442.09 96.48 442.56 95.24 443.04 C91.85 444.04 89.5 444.48 86 444 C80.8 441.1 79.48 437.09 77.62 431.75 C77.02 430.13 76.42 428.51 75.81 426.9 C74.92 424.51 74.04 422.12 73.16 419.72 C72.37 417.59 71.53 415.48 70.69 413.38 C70.22 412.15 69.75 410.92 69.26 409.65 C64.51 400.53 53.25 395.61 44.56 391.06 C42.95 390.2 42.95 390.2 41.31 389.32 C35.8 386.34 35.8 386.34 30 384 C30 383.34 30 382.68 30 382 C35.62 382.51 39.77 384.02 44.75 386.62 C45.45 386.98 46.14 387.34 46.86 387.71 C63.13 396.19 73.01 405.15 79.12 422.69 C82.13 432.87 82.13 432.87 89.17 440.11 C93.62 439.94 97.24 438.08 101.25 436.25 C110.62 432.07 110.62 432.07 115.48 430.55 C119.73 429.19 123.54 427.29 127.49 425.25 C131.46 423.27 135.54 421.65 139.69 420.06 C140.58 419.72 141.48 419.37 142.41 419.02 C149.01 416.56 155.65 414.75 162.5 413.12 C170.57 411.18 177.95 408.58 185.44 405 C186.28 404.6 187.13 404.19 188 403.78 C192.79 401.38 197.05 398.67 201.26 395.35 C202.89 394.09 204.6 392.95 206.31 391.81 C208.96 390.15 208.96 390.15 210.75 388.25 C211.16 387.84 211.58 387.42 212 387 C212.66 387 213.32 387 214 387 C214.25 386.43 214.49 385.86 214.75 385.27 C216.2 382.63 217.95 380.84 220.06 378.69 C238.59 358.32 247.36 331.06 248 304 C248.04 303.09 248.08 302.18 248.12 301.24 C248.75 278.68 241.21 251.87 227.33 233.83 C226 232 226 232 226 230 C225.34 230 224.68 230 224 230 C222.52 228.24 222.52 228.24 220.81 225.88 C218.44 222.71 216.12 220.07 213.06 217.56 C212.05 216.72 211.04 215.87 210 215 C210 214.34 210 213.68 210 213 C209.48 212.76 208.95 212.52 208.41 212.27 C205.25 210.61 202.32 208.64 199.38 206.62 C198.79 206.24 198.2 205.85 197.6 205.45 C192.06 201.67 192.06 201.67 191 198 C190.95 195.66 190.95 195.66 191.25 193.06 C191.36 192.09 191.46 191.12 191.57 190.12 C192.01 186.93 192.53 183.75 193.06 180.56 C194.06 174.31 194.27 168.31 194 162 C193.98 161.29 193.96 160.58 193.95 159.85 C192.77 141.88 183.76 124.06 173 110 C172.1 108.76 172.1 108.76 171.18 107.5 C168.1 103.35 165.64 100.44 161 98 C160.26 97.23 159.52 96.46 158.75 95.67 C147.15 84.43 129.7 78.95 114.23 75.86 C102.88 73.59 102.88 73.59 99 71 C99 70.34 99 69.68 99 69 C98.34 69 97.68 69 97 69 C95.77 67.13 95.77 67.13 94.38 64.56 C90.02 57.04 84.2 51.04 78 45 C77.46 44.43 76.91 43.87 76.35 43.29 C72.8 39.62 69.32 36.77 65 34 C63.6 32.88 62.2 31.76 60.81 30.62 C55.84 26.74 50.63 23.82 45 21 C44.07 20.53 44.07 20.53 43.12 20.06 C29.34 13.19 15.56 7.72 0.44 4.62 C-0.38 4.46 -1.2 4.29 -2.05 4.12 C-7.13 3.16 -11.83 2.9 -17 3 C-18.54 2.86 -20.09 2.7 -21.62 2.5 C-28.09 1.81 -34.51 1.85 -41 2 C-42.01 2.02 -43.01 2.03 -44.05 2.05 C-69.84 3.22 -95.63 14.23 -117.18 27.97 C-119 29 -119 29 -121 29 C-121.33 29.99 -121.66 30.98 -122 32 C-124.33 33.87 -124.33 33.87 -127.25 35.88 C-131.91 39.14 -131.91 39.14 -136.06 43 C-136.7 43.66 -137.34 44.32 -138 45 C-138.66 45 -139.32 45 -140 45 C-140.25 45.56 -140.5 46.11 -140.75 46.68 C-142.22 49.41 -143.99 51.66 -145.94 54.06 C-146.63 54.92 -147.32 55.78 -148.03 56.66 C-149.62 58.55 -151.25 60.27 -153 62 C-153.77 63.08 -153.77 63.08 -154.56 64.19 C-155.04 64.79 -155.51 65.38 -156 66 C-156.66 66 -157.32 66 -158 66 C-158.24 66.67 -158.49 67.34 -158.74 68.03 C-159.98 70.94 -161.43 73.66 -162.97 76.42 C-167.51 84.59 -171.09 92.9 -174.26 101.69 C-176.18 107.01 -178.37 111.99 -181 117 C-181.33 117 -181.66 117 -182 117 C-182.63 110.06 -180.48 104.42 -178 98 C-177.62 97.02 -177.62 97.02 -177.23 96.02 C-172.08 82.94 -164.91 71.57 -157 60 C-156.34 59.01 -155.68 58.02 -155 57 C-154.34 57 -153.68 57 -153 57 C-152.75 56.43 -152.5 55.87 -152.24 55.28 C-139.45 31.72 -107.11 13.5 -82.44 5.81 C-78.98 4.8 -75.49 3.89 -72 3 C-70.58 2.62 -69.16 2.23 -67.73 1.85 C-46.69 -3.72 -21.39 -4.6 0 0 Z " fill="#070D00" transform="translate(753,226)"/>
<path d="M0 0 C26.22 11.32 43.52 33.99 54.21 59.95 C62.92 84.02 62.83 113.03 52.85 136.73 C51.96 138.52 50.99 140.26 50 142 C49.34 142 48.68 142 48 142 C46.34 135.43 44.94 128.91 43.97 122.2 C40.18 95.97 30.47 70.36 13.69 49.55 C9.29 42.91 8.01 35.12 6.44 27.44 C4.87 19.68 4.87 19.68 2.86 12.03 C1.88 8.58 1.85 5.57 2 2 C1.34 2 0.68 2 0 2 C0 1.34 0 0.68 0 0 Z " fill="#E7D9C8" transform="translate(931,431)"/>
<path d="M0 0 C3.78 1.5 5.52 3.65 7.94 6.88 C10.04 9.67 11.87 11.9 14.63 14.07 C16.99 16 18.14 17.09 19 20 C18.47 21.9 18.47 21.9 17.5 23.94 C15.85 28.23 16.17 30.97 17.12 35.44 C18.27 41.46 17.46 44.09 14.44 49.28 C8.5 60.51 8.33 73.84 7.68 86.24 C7.36 92.13 6.98 97.43 5 103 C-11.75 95.74 -23.98 84.72 -32.15 68.16 C-33 66 -33 66 -33 63 C-32.34 63 -31.68 63 -31 63 C-29.37 58.17 -27.79 53.34 -26.27 48.47 C-20.37 29.73 -13.45 14.45 0 0 Z " fill="#E2D1BB" transform="translate(507,455)"/>
<path d="M0 0 C20.2 9.5 35.13 31.92 42.78 52.14 C45.34 59.81 48.2 69.07 46 77 C45.34 77 44.68 77 44 77 C42.91 75.6 41.88 74.15 40.88 72.69 C36.79 67.32 33.41 65.62 26.84 64.7 C19.14 64.23 12.71 67.59 6 71 C5.13 70.38 4.27 69.76 3.38 69.12 C-2.67 65.32 -7.97 64.35 -15 65 C-18.41 65.88 -18.41 65.88 -21 67 C-22.02 63.82 -21.94 61.71 -21.18 58.47 C-20.98 57.6 -20.77 56.74 -20.56 55.84 C-20.34 54.92 -20.11 54.01 -19.88 53.06 C-19.65 52.12 -19.42 51.18 -19.18 50.21 C-17.61 43.92 -15.72 38.02 -13.11 32.08 C-12.14 29.39 -11.64 27.07 -11.18 24.27 C-10.1 18.54 -7.7 13.93 -4.88 8.88 C-4.41 8.01 -3.94 7.15 -3.46 6.27 C-2.32 4.17 -1.16 2.08 0 0 Z " fill="#E0CBAE" transform="translate(856,403)"/>
<path d="M0 0 C2.05 0.62 4.06 1.3 6.08 2.02 C10.75 3.67 14.93 5.05 19.95 4.52 C22.33 2.64 22.33 2.64 23.95 0.52 C23.95 1.18 23.95 1.84 23.95 2.52 C24.59 2.68 25.23 2.84 25.89 3 C31.88 4.62 36.2 6.49 40.95 10.52 C40.95 11.18 40.95 11.84 40.95 12.52 C39.52 13.89 39.52 13.89 37.51 15.52 C24.65 26.52 13.36 42.3 7.95 58.52 C3.78 57.93 0.13 56.97 -3.79 55.45 C-4.87 55.03 -5.95 54.61 -7.06 54.18 C-8.19 53.74 -9.32 53.29 -10.49 52.83 C-12.22 52.15 -12.22 52.15 -13.99 51.46 C-16.29 50.56 -18.59 49.66 -20.89 48.76 C-23.6 47.69 -26.33 46.65 -29.06 45.63 C-30.41 45.11 -31.76 44.6 -33.11 44.08 C-34.26 43.65 -35.4 43.22 -36.58 42.77 C-39.05 41.52 -39.05 41.52 -40.05 38.52 C-38.86 35.74 -37.61 33.17 -36.17 30.52 C-35.76 29.76 -35.35 28.99 -34.93 28.21 C-29.5 18.39 -22.35 10.06 -14.05 2.52 C-13.48 1.95 -12.91 1.39 -12.32 0.8 C-8.39 -1.42 -4.26 -1 0 0 Z " fill="#E3D2BC" transform="translate(827.0478515625,357.48046875)"/>
<path d="M0 0 C4.42 -0.41 6.76 0.52 10.33 3.18 C11.81 4.43 13.27 5.7 14.72 6.98 C15.46 7.61 16.2 8.24 16.96 8.88 C20.71 12.09 24.05 15.28 26.97 19.3 C25.36 19.57 25.36 19.57 23.71 19.85 C22.28 20.1 20.84 20.36 19.4 20.61 C18.7 20.73 17.99 20.85 17.27 20.97 C13.75 21.6 10.96 22.3 7.7 23.85 C2.69 26.14 -2.74 25.92 -8.16 26.17 C-27.66 27.35 -47.22 30.08 -65.75 36.48 C-69.34 37.37 -71.47 37.18 -75.03 36.3 C-75.76 36.12 -76.49 35.94 -77.24 35.76 C-77.91 35.59 -78.59 35.41 -79.28 35.23 C-88.74 33.2 -94.79 34.11 -103.47 38.59 C-106 40.28 -107.4 41.76 -109.03 44.3 C-112.03 43.3 -112.03 43.3 -113.42 41.01 C-113.85 40.1 -114.28 39.18 -114.72 38.23 C-115.16 37.32 -115.6 36.4 -116.05 35.45 C-116.37 34.74 -116.7 34.03 -117.03 33.3 C-108.51 28.09 -99.36 24.76 -90.03 21.3 C-88.84 20.85 -87.65 20.41 -86.42 19.95 C-82.97 18.69 -79.51 17.48 -76.03 16.3 C-75.36 16.07 -74.68 15.84 -73.99 15.6 C-53.46 8.66 -32.56 3.82 -11.03 1.3 C-10.27 1.2 -9.51 1.1 -8.73 1 C-5.82 0.65 -2.9 0.42 0 0 Z " fill="#7F7459" transform="translate(718.0341796875,565.703125)"/>
<path d="M0 0 C-0.28 3.29 -0.57 6.58 -0.88 9.88 C-0.95 10.81 -1.03 11.75 -1.11 12.71 C-1.2 13.61 -1.28 14.51 -1.37 15.43 C-1.44 16.26 -1.51 17.08 -1.59 17.94 C-2 20 -2 20 -4 22 C-8.81 19.45 -12.32 17.01 -16 13 C-16.66 13.33 -17.32 13.66 -18 14 C-18.33 19.61 -18.66 25.22 -19 31 C-17.02 31.66 -15.04 32.32 -13 33 C-12.33 34.33 -11.67 35.67 -11 37 C-9.02 37.73 -7.02 38.4 -5 39 C-5.13 42.4 -5.34 45.79 -5.56 49.19 C-5.6 50.15 -5.64 51.11 -5.67 52.1 C-6.18 59.01 -6.18 59.01 -8.51 61.81 C-11.1 63.81 -12.8 65.08 -16.15 64.86 C-29.29 61.64 -44.26 47.83 -52.56 37.71 C-54.08 35.82 -54.08 35.82 -56.5 33.81 C-58 32 -58 32 -57.79 29.63 C-56.44 25.14 -53.18 22.34 -50 19 C-49.45 18.39 -48.9 17.77 -48.33 17.14 C-39.4 7.55 -13.45 -6.73 0 0 Z " fill="#98805E" transform="translate(580,417)"/>
<path d="M0 0 C6.83 8.19 12.57 17.27 18.38 26.19 C19.03 27.19 19.68 28.19 20.35 29.22 C24.78 36.05 29.07 42.93 33.19 49.95 C34.77 52.6 36.39 55.21 38.06 57.81 C40 61 40 61 40 63 C40.96 63.13 40.96 63.13 41.94 63.27 C47.5 64.42 50.87 66.15 54.38 70.69 C57.27 75.85 57.32 79.6 56 85.19 C53.62 93.56 49.14 98.04 41.64 102.36 C39.79 103.31 37.9 104.17 36 105 C35.3 103.16 34.61 101.32 33.93 99.47 C33.29 97.77 32.63 96.09 31.95 94.41 C28.92 86.72 27.2 79.42 28.69 71.19 C29.27 67.93 29.27 67.93 27.62 64.94 C25.26 62.3 23.59 61.04 20.62 59.25 C15.22 55.88 12.94 51.51 10 46 C9.27 44.86 8.52 43.74 7.75 42.62 C1.43 33.15 -0.58 21.08 -0.04 9.87 C0.09 6.91 0.09 6.91 -0.55 3.7 C-0.7 2.81 -0.85 1.92 -1 1 C-0.67 0.67 -0.34 0.34 0 0 Z " fill="#DFC6A6" transform="translate(551,533)"/>
<path d="M0 0 C0.66 0 1.32 0 2 0 C2.43 4.07 2.86 8.14 3.28 12.21 C3.43 13.59 3.57 14.97 3.72 16.35 C4.97 28.08 5.43 39.27 4 51 C-0.72 52.89 -5.44 54.78 -10.16 56.66 C-11.08 57.03 -12.01 57.4 -12.96 57.79 C-15.09 58.64 -17.23 59.49 -19.36 60.34 C-26.38 63.14 -33.39 65.97 -40.38 68.83 C-42.81 69.82 -45.24 70.82 -47.67 71.81 C-49.32 72.48 -50.98 73.16 -52.64 73.85 C-55.07 74.85 -57.51 75.84 -59.95 76.83 C-61.05 77.29 -61.05 77.29 -62.18 77.75 C-69.4 80.69 -69.4 80.69 -73 81 C-75.82 79.2 -75.82 79.2 -78.69 76.69 C-79.64 75.87 -80.59 75.05 -81.57 74.2 C-83.08 72.83 -84.56 71.44 -86 70 C-85.18 69.72 -84.35 69.44 -83.5 69.15 C-38.26 55.02 -38.26 55.02 -6.12 22.31 C-2.69 15.07 -1.16 7.91 0 0 Z " fill="#98805E" transform="translate(905,541)"/>
<path d="M0 0 C6.32 4.84 12.74 12.72 14.22 20.7 C14.73 25.77 14.82 29.57 12.41 34.14 C7.11 40.34 7.11 40.34 1.72 41.01 C-9.31 41.49 -16.98 37.35 -25.28 30.32 C-31.52 24.32 -34.32 18.77 -34.88 10.09 C-34.68 5.4 -32.9 2.24 -30.16 -1.55 C-20.28 -8.83 -9.72 -6.35 0 0 Z " fill="#886742" transform="translate(759.78125,603.30078125)"/>
<path d="M0 0 C0.83 -0.01 1.67 -0.01 2.52 -0.02 C4.62 0.25 4.62 0.25 6.62 2.25 C3.33 4.45 1.19 4.49 -2.65 4.86 C-11.4 6.12 -19.1 9.22 -26.45 14.08 C-28.38 15.25 -28.38 15.25 -30.38 15.25 C-30.63 15.81 -30.88 16.37 -31.14 16.95 C-32.56 19.59 -34.31 21.72 -36.19 24.06 C-40.44 29.77 -42.3 35.2 -44.17 41.96 C-46.53 48.41 -51.2 50.41 -57.06 53.19 C-58.5 53.89 -59.94 54.59 -61.38 55.3 C-62.06 55.63 -62.75 55.97 -63.46 56.31 C-65.85 57.48 -68.22 58.69 -70.56 59.94 C-71.2 60.27 -71.83 60.61 -72.48 60.95 C-88.68 72.07 -99.2 94.1 -102.94 112.75 C-103.46 115.58 -103.92 118.41 -104.38 121.25 C-104.63 122.45 -104.63 122.45 -104.9 123.68 C-109.41 148.04 -102.72 174.17 -90.48 195.18 C-89.38 197.25 -89.38 197.25 -89.38 199.25 C-88.71 199.25 -88.06 199.25 -87.38 199.25 C-86.45 200.65 -85.54 202.05 -84.64 203.46 C-81.5 207.9 -77.51 211.65 -72.94 214.56 C-72.09 215.12 -71.25 215.68 -70.38 216.25 C-70.38 216.91 -70.38 217.57 -70.38 218.25 C-69.74 218.52 -69.1 218.79 -68.44 219.06 C-66.38 220.25 -66.38 220.25 -65.38 223.25 C-64.72 223.58 -64.06 223.91 -63.38 224.25 C-64.03 224.25 -64.69 224.25 -65.38 224.25 C-65.38 224.91 -65.38 225.57 -65.38 226.25 C-64.38 226.25 -63.39 226.25 -62.38 226.25 C-61.69 230.49 -61.29 233.68 -61.91 237.98 C-63.97 253.16 -57.71 270.19 -49.11 282.49 C-47.76 284.16 -46.38 285.81 -44.94 287.4 C-43.38 289.25 -43.38 289.25 -42.38 292.25 C-41.72 292.25 -41.06 292.25 -40.38 292.25 C-40.38 292.91 -40.38 293.57 -40.38 294.25 C-38.73 294.91 -37.08 295.57 -35.38 296.25 C-35.38 296.91 -35.38 297.57 -35.38 298.25 C-34.37 298.62 -34.37 298.62 -33.35 299 C-31.07 299.96 -28.98 300.96 -26.81 302.12 C-18.75 306.44 -11.65 309.65 -2.38 310.25 C-1.56 310.32 -0.75 310.39 0.09 310.46 C14.58 311.09 27.02 305.55 39.14 298.32 C41.98 297.1 42.78 297.38 45.62 298.25 C40.86 302.74 36.14 305.82 30.19 308.5 C29.48 308.84 28.76 309.18 28.03 309.52 C14.86 315.6 -1.3 316.69 -15.31 312.75 C-24.79 309.23 -35.2 304.67 -41.88 296.89 C-43.42 295.1 -43.42 295.1 -45.77 293.45 C-48.79 290.9 -50.8 288.06 -52.88 284.75 C-53.26 284.14 -53.65 283.52 -54.05 282.89 C-63.79 267.11 -67.42 249.7 -65.57 231.39 C-65.26 227.67 -65.26 227.67 -66.38 224.25 C-67.07 223.97 -67.76 223.7 -68.47 223.41 C-72.72 221.71 -75.52 218.75 -78.81 215.62 C-79.78 214.74 -79.78 214.74 -80.76 213.83 C-85.2 209.66 -88.89 205.24 -92.38 200.25 C-93.08 199.25 -93.78 198.25 -94.5 197.22 C-100.02 188.65 -103.54 180.02 -106.38 170.25 C-106.72 169.09 -107.06 167.93 -107.41 166.73 C-109.64 157.31 -109.69 147.82 -109.75 138.19 C-109.76 137.51 -109.77 136.84 -109.77 136.14 C-109.88 124.36 -108.88 112.29 -104.23 101.31 C-103.56 99.7 -102.98 98.06 -102.43 96.41 C-96.13 78.18 -82.89 60.93 -65.38 52.25 C-64.08 51.78 -62.77 51.32 -61.46 50.88 C-54.22 48.84 -54.22 48.84 -49.04 43.92 C-48.62 42.09 -48.28 40.23 -48 38.38 C-45.77 27.27 -36.97 17.06 -28.38 10.25 C-19.8 4.57 -10.5 -0.07 0 0 Z " fill="#070D00" transform="translate(563.375,342.75)"/>
<path d="M0 0 C1.28 2.55 2.3 4.9 3.25 7.56 C3.65 8.63 3.65 8.63 4.06 9.72 C4.72 11.47 5.36 13.24 6 15 C2.59 17.14 -0.78 18.84 -4.52 20.35 C-5.59 20.78 -6.66 21.22 -7.77 21.67 C-9.49 22.36 -9.49 22.36 -11.25 23.06 C-12.44 23.54 -13.64 24.03 -14.87 24.52 C-20.82 26.93 -26.78 29.31 -32.74 31.7 C-33.81 32.13 -34.87 32.55 -35.97 32.99 C-38.06 33.82 -40.15 34.65 -42.24 35.48 C-46.93 37.34 -51.59 39.24 -56.2 41.29 C-56.99 41.63 -57.77 41.97 -58.58 42.33 C-60.02 42.96 -61.45 43.61 -62.88 44.28 C-64.77 45.11 -64.77 45.11 -68 46 C-71.29 44.67 -71.95 43.1 -73.52 39.93 C-74.16 38.2 -74.16 38.2 -74.81 36.44 C-75.25 35.28 -75.69 34.12 -76.14 32.93 C-77 30 -77 30 -76 28 C-74.1 27.12 -72.16 26.32 -70.2 25.57 C-68.99 25.11 -67.79 24.64 -66.54 24.16 C-65.26 23.67 -63.97 23.18 -62.69 22.69 C-60.21 21.73 -57.74 20.78 -55.26 19.82 C-54.04 19.35 -52.83 18.88 -51.57 18.4 C-47.22 16.69 -42.91 14.9 -38.6 13.09 C-34.74 11.47 -30.86 9.93 -26.97 8.4 C-23.42 6.99 -19.91 5.54 -16.41 4.03 C-15.64 3.7 -14.88 3.37 -14.09 3.04 C-12.6 2.4 -11.11 1.75 -9.63 1.1 C-3.56 -1.49 -3.56 -1.49 0 0 Z " fill="#725938" transform="translate(915,607)"/>
<path d="M0 0 C-0.61 7.71 -1.29 15.42 -2 23.12 C-2.08 24.06 -2.17 25 -2.25 25.96 C-2.37 27.28 -2.37 27.28 -2.5 28.63 C-2.57 29.43 -2.64 30.22 -2.72 31.04 C-3 33 -3 33 -4 35 C-5.88 35.56 -5.88 35.56 -8.34 36 C-9.69 36.25 -9.69 36.25 -11.06 36.5 C-12.49 36.75 -12.49 36.75 -13.94 37 C-15.78 37.33 -17.62 37.67 -19.46 38 C-20.38 38.16 -21.29 38.32 -22.24 38.49 C-25.78 39.14 -29.29 39.88 -32.81 40.63 C-35 41 -35 41 -39 41 C-40.89 36.88 -41.61 32.84 -42.12 28.38 C-42.21 27.67 -42.29 26.97 -42.38 26.25 C-43.04 20.49 -43.22 14.8 -43 9 C-34.45 6.11 -25.76 3.85 -17 1.69 C-15.35 1.27 -15.35 1.27 -13.67 0.84 C-12.63 0.59 -11.58 0.34 -10.5 0.07 C-9.56 -0.16 -8.62 -0.39 -7.66 -0.63 C-4.82 -1.03 -2.76 -0.73 0 0 Z " fill="#DFC6A6" transform="translate(718,419)"/>
<path d="M0 0 C3.45 1.54 5.17 3.32 7.52 6.29 C9.79 8.92 12.43 11.08 15.08 13.33 C17.51 15.44 19.73 17.73 22 20 C25.3 22.9 28.48 23.9 32.69 25.06 C34.81 25.65 36.92 26.28 39 27 C39.5 27.99 39.5 27.99 40 29 C38.78 31.55 37.51 33.98 36.12 36.44 C33.23 41.56 33.23 41.56 31 47 C26.83 46.42 23.17 45.46 19.25 43.93 C18.18 43.51 17.1 43.09 15.99 42.66 C14.86 42.22 13.73 41.77 12.56 41.31 C10.83 40.63 10.83 40.63 9.06 39.94 C6.76 39.04 4.46 38.14 2.16 37.24 C-0.55 36.17 -3.28 35.13 -6.01 34.11 C-7.36 33.59 -8.71 33.08 -10.06 32.56 C-11.21 32.13 -12.35 31.7 -13.54 31.25 C-16 30 -16 30 -17 27 C-15.79 24.2 -14.52 21.61 -13.06 18.94 C-12.45 17.8 -12.45 17.8 -11.83 16.64 C-8.47 10.53 -4.68 5.19 0 0 Z " fill="#E0CBAE" transform="translate(804,369)"/>
<path d="M0 0 C7.51 4.34 13.19 10.92 15.81 19.31 C16.74 24.4 16.8 27.95 14.54 32.56 C11.01 36.55 8.07 38.04 2.79 38.62 C-7.82 37.53 -16.79 31.4 -23.46 23.25 C-26.35 19.05 -27.07 15.11 -26.65 10.12 C-25.71 5.64 -24.99 2.77 -21.14 0.06 C-13.73 -4.11 -7.45 -3.69 0 0 Z " fill="#896742" transform="translate(641.8359375,612.75)"/>
<path d="M0 0 C0.66 0 1.32 0 2 0 C21.91 20.61 31.46 48.6 31.23 76.94 C30.97 88.42 29.64 99.37 25 110 C24.5 109.01 24.5 109.01 24 108 C23.34 108 22.68 108 22 108 C21.18 106.15 20.37 104.3 19.56 102.44 C19.11 101.4 18.66 100.37 18.19 99.31 C15.86 92.85 15.87 86.39 15.71 79.6 C15.08 53.11 11.39 28.93 1.36 4.37 C0 1 0 1 0 0 Z " fill="#E0CBAE" transform="translate(908,498)"/>
<path d="M0 0 C6.36 6.36 7.32 22.19 7.81 30.94 C7.65 34.16 7.55 36.2 5.73 38.87 C3.6 40.58 1.43 41.74 -1 43 C-2.2 43.74 -3.4 44.49 -4.59 45.24 C-20.14 55 -20.14 55 -27 55 C-26.04 41.37 -26.04 41.37 -25 35 C-25.9 34.81 -25.9 34.81 -26.83 34.62 C-33.14 33 -33.14 33 -35.52 30.23 C-37.29 26.94 -38 24.57 -38 20.81 C-36.48 16.52 -34.55 13.87 -30.56 11.62 C-27.45 10.87 -25.95 10.68 -23 12 C-22.25 13.72 -21.51 15.45 -20.86 17.21 C-19.33 20.39 -17.08 21.49 -14 23 C-11.3 23.57 -8.77 23.81 -6 24 C-6 24.66 -6 25.32 -6 26 C-5.34 26 -4.68 26 -4 26 C-3.5 26.99 -3.5 26.99 -3 28 C-0.08 24.76 0.36 22.68 0.29 18.36 C0.28 17.29 0.27 16.22 0.26 15.12 C0.24 14.01 0.21 12.89 0.19 11.75 C0.17 10.62 0.16 9.5 0.15 8.34 C0.11 5.56 0.06 2.78 0 0 Z " fill="#725938" transform="translate(655,382)"/>
<path d="M0 0 C1.74 2.05 3.25 4.03 4.75 6.25 C5.17 6.84 5.6 7.42 6.04 8.03 C9.1 12.46 9.1 12.46 8.61 15.2 C8.41 15.8 8.21 16.39 8 17 C7 16.9 7 16.9 5.97 16.79 C-20.82 14.16 -48.17 16.54 -73.62 25.64 C-77.57 26.98 -81.05 27.37 -85.25 27.31 C-86.41 27.31 -87.57 27.3 -88.77 27.3 C-91.91 27.01 -94.16 26.34 -97 25 C-97 24.34 -97 23.68 -97 23 C-69.13 13.08 -41.51 4.43 -12 1 C-11.18 0.9 -10.36 0.81 -9.52 0.71 C-6.31 0.34 -3.23 0 0 0 Z " fill="#DFC6A6" transform="translate(719,566)"/>
<path d="M0 0 C2.55 0.49 5.05 1.05 7.57 1.66 C8.34 1.85 9.12 2.03 9.92 2.22 C12.47 2.83 15.02 3.44 17.56 4.06 C19.3 4.48 21.04 4.9 22.78 5.32 C26.24 6.15 29.71 6.99 33.17 7.83 C37.35 8.85 41.53 9.83 45.72 10.8 C47.86 11.3 49.99 11.81 52.12 12.31 C53.09 12.53 54.05 12.75 55.04 12.97 C55.92 13.18 56.79 13.39 57.7 13.61 C58.44 13.79 59.18 13.96 59.95 14.14 C62.59 15.25 64.1 16.89 66 19 C65.07 19.18 64.14 19.36 63.18 19.55 C58.81 20.4 54.44 21.26 50.06 22.12 C49.27 22.28 48.48 22.44 47.67 22.6 C36.12 24.88 24.67 27.38 13.29 30.4 C11.88 30.76 11.88 30.76 10.43 31.13 C9.62 31.35 8.81 31.56 7.97 31.79 C7.32 31.86 6.67 31.93 6 32 C3.74 29.74 3.65 29.05 3.22 26 C3.1 25.2 2.98 24.4 2.86 23.57 C2.74 22.72 2.62 21.88 2.5 21 C2.25 19.27 1.99 17.55 1.73 15.82 C1.61 14.99 1.49 14.16 1.36 13.3 C0.92 10.47 0.35 7.68 -0.25 4.88 C-0.5 3.6 -0.75 2.32 -1 1 C-0.67 0.67 -0.34 0.34 0 0 Z " fill="#DFC6A6" transform="translate(672,381)"/>
<path d="M0 0 C6.56 7.41 6.74 17.63 7.19 27 C7.25 28.19 7.32 29.39 7.39 30.62 C7.61 38.96 7.61 38.96 5.87 41.92 C4.49 43.31 4.49 43.31 2 45 C2 44.01 2 43.02 2 42 C1.34 42 0.68 42 0 42 C0 41.34 0 40.68 0 40 C-1.2 40.08 -2.39 40.17 -3.62 40.25 C-8.09 40.27 -10.51 38.83 -14 36 C-16.46 33.54 -17 31.29 -18 28 C-20.31 28 -22.62 28 -25 28 C-25.17 25.06 -25.33 22.13 -25.5 19.19 C-25.57 17.94 -25.57 17.94 -25.64 16.66 C-25.69 15.86 -25.73 15.06 -25.78 14.23 C-25.82 13.49 -25.87 12.75 -25.91 11.99 C-25.98 10.33 -26 8.66 -26 7 C-6.81 -2.3 -6.81 -2.3 0 0 Z " fill="#886641" transform="translate(649,366)"/>
<path d="M0 0 C0.36 3.06 0.36 3.06 0.33 6.94 C0.33 7.62 0.32 8.31 0.32 9.01 C0.32 10.45 0.3 11.9 0.28 13.34 C0.25 15.56 0.24 17.77 0.23 19.99 C0.16 30.84 0.16 30.84 -1 32 C-2.85 32.3 -4.71 32.54 -6.57 32.75 C-7.69 32.89 -8.82 33.02 -9.97 33.15 C-11.16 33.29 -12.34 33.42 -13.56 33.56 C-14.75 33.7 -15.94 33.84 -17.16 33.98 C-20.11 34.33 -23.05 34.66 -26 35 C-26 34.34 -26 33.68 -26 33 C-26.66 33 -27.32 33 -28 33 C-28.84 29.11 -29.67 25.21 -30.5 21.31 C-30.74 20.21 -30.98 19.11 -31.22 17.97 C-31.45 16.9 -31.67 15.84 -31.91 14.74 C-32.12 13.76 -32.33 12.78 -32.54 11.77 C-32.98 9.12 -33.09 6.68 -33 4 C-29.13 3.19 -25.25 2.37 -21.38 1.56 C-20.28 1.33 -19.19 1.1 -18.06 0.87 C-17 0.64 -15.93 0.42 -14.84 0.19 C-13.86 -0.01 -12.89 -0.22 -11.88 -0.43 C-10.93 -0.62 -9.98 -0.81 -9 -1 C-7.95 -1.23 -6.9 -1.46 -5.82 -1.7 C-3 -2 -3 -2 0 0 Z " fill="#DFC6A6" transform="translate(714,470)"/>
<path d="M0 0 C0.99 0.66 1.98 1.32 3 2 C3.36 4.75 3.56 7.31 3.62 10.06 C3.35 14.92 3.35 14.92 5 19 C5.07 20.52 5.08 22.04 5.06 23.56 C5.05 24.39 5.04 25.22 5.04 26.07 C5.02 26.7 5.01 27.34 5 28 C0.81 29.29 -3.37 30.58 -7.56 31.88 C-8.74 32.24 -9.93 32.6 -11.14 32.98 C-16.75 34.71 -22.35 36.42 -28 38 C-32.85 31.76 -36 23.93 -36 16 C-34.86 15.65 -33.73 15.3 -32.55 14.93 C-21.2 11.34 -9.43 7.54 0 0 Z " fill="#80755A" transform="translate(659,437)"/>
<path d="M0 0 C6 23.74 6 23.74 6 29 C2.06 30.17 -1.87 31.34 -5.81 32.5 C-6.93 32.83 -8.05 33.17 -9.21 33.51 C-10.81 33.99 -10.81 33.99 -12.46 34.47 C-13.45 34.76 -14.44 35.06 -15.46 35.36 C-18 36 -18 36 -21 36 C-21 35.34 -21 34.68 -21 34 C-21.66 34 -22.32 34 -23 34 C-24.34 30.59 -25.67 27.17 -27 23.75 C-27.38 22.78 -27.76 21.81 -28.16 20.82 C-28.52 19.88 -28.88 18.95 -29.25 17.98 C-29.59 17.13 -29.92 16.27 -30.27 15.38 C-31 13 -31 13 -31 9 C-27.23 7.71 -23.46 6.43 -19.68 5.15 C-18.4 4.72 -17.12 4.28 -15.84 3.85 C-13.99 3.21 -12.14 2.59 -10.3 1.97 C-8.63 1.4 -8.63 1.4 -6.93 0.83 C-4 0 -4 0 0 0 Z " fill="#DFC6A6" transform="translate(667,479)"/>
<path d="M0 0 C2.5 7.9 4.98 15.8 7.31 23.75 C7.8 25.41 7.8 25.41 8.3 27.11 C9 30 9 30 9 34 C5.92 34.67 2.83 35.34 -0.25 36 C-1.12 36.19 -2 36.38 -2.89 36.58 C-3.74 36.76 -4.58 36.94 -5.45 37.12 C-6.23 37.29 -7 37.46 -7.8 37.63 C-10 38 -10 38 -14 38 C-17.56 31.61 -20.27 24.96 -22.81 18.12 C-23.13 17.29 -23.44 16.46 -23.76 15.6 C-24.05 14.81 -24.35 14.01 -24.64 13.2 C-25.04 12.13 -25.04 12.13 -25.44 11.04 C-26 9 -26 9 -26 5 C-22.61 3.96 -19.21 2.95 -15.81 1.94 C-14.37 1.5 -14.37 1.5 -12.9 1.04 C-11.51 0.63 -11.51 0.63 -10.08 0.21 C-8.8 -0.17 -8.8 -0.17 -7.5 -0.56 C-4.7 -1.05 -2.72 -0.72 0 0 Z " fill="#DFC6A6" transform="translate(677,523)"/>
<path d="M0 0 C4.09 3.68 6.45 7.37 8.75 12.38 C13.55 22.36 18.75 32.26 25.88 40.81 C31.97 48.38 32.48 56.58 32 66 C31.01 66.5 31.01 66.5 30 67 C14.32 57.34 4.11 45.5 -0.25 27.38 C-1.83 18.55 -1.7 8.78 0 0 Z " fill="#E2D1BB" transform="translate(512,570)"/>
<path d="M0 0 C22.99 1.06 43.32 9.92 59 27 C65.2 34.34 70.66 41.94 74 51 C70.21 49.67 67.56 48.03 64.5 45.44 C52.04 35.27 38.47 26.99 23.97 20.05 C14.22 15.3 7.13 9.19 0 1 C0 0.67 0 0.34 0 0 Z " fill="#EEE6DE" transform="translate(855,310)"/>
<path d="M0 0 C2.38 1.67 4.44 3.39 6.4 5.54 C8.23 7.21 9.81 7.78 12.12 8.62 C14.26 9.63 14.26 9.63 16 11 C17.04 14.02 17.09 16.83 17 20 C17 20.99 17 21.98 17 23 C21.09 20.79 23.99 18.17 27.19 14.81 C28.75 13.17 30.35 11.56 32 10 C32.66 10 33.32 10 34 10 C34.7 11.22 35.39 12.45 36.06 13.69 C36.45 14.37 36.83 15.06 37.22 15.76 C38.23 18.66 37.96 20.1 37 23 C32.28 30.45 25.74 36.41 19 42 C18.32 42.56 17.65 43.13 16.95 43.71 C15.12 45.12 15.12 45.12 12 47 C10.68 46.67 9.36 46.34 8 46 C8.99 39.73 9.98 33.46 11 27 C8.69 26.34 6.38 25.68 4 25 C3.67 23.68 3.34 22.36 3 21 C0.69 20.34 -1.62 19.68 -4 19 C-3.5 10.09 -3.5 10.09 -3 1 C-2.01 0.67 -1.02 0.34 0 0 Z " fill="#715837" transform="translate(564,429)"/>
<path d="M0 0 C1.69 6.58 1.11 12.94 -2 19 C-5.7 21.06 -9.15 22.01 -13.24 22.99 C-18.06 24.29 -21.5 26.47 -25 30 C-25.33 30.66 -25.66 31.32 -26 32 C-26.66 32 -27.32 32 -28 32 C-28.99 35.3 -29.98 38.6 -31 42 C-32.98 41.67 -34.96 41.34 -37 41 C-34.32 8.73 -34.32 8.73 -31.81 5.44 C-29.39 3.52 -27.45 3.29 -24.41 2.83 C-22.77 2.58 -22.77 2.58 -21.09 2.31 C-19.95 2.15 -18.8 1.98 -17.62 1.81 C-16.49 1.64 -15.35 1.46 -14.18 1.28 C-9.41 0.55 -4.83 -0.11 0 0 Z " fill="#DFC6A6" transform="translate(765,410)"/>
<path d="M0 0 C1 2.85 1.06 5.38 0.94 8.38 C0.89 11.33 1.03 13.1 2 15.94 C4 22.07 3.31 28.75 2 35 C-1.56 36.05 -5.06 36.3 -8.75 36.56 C-9.92 36.65 -11.09 36.73 -12.3 36.82 C-13.19 36.88 -14.08 36.94 -15 37 C-15 36.34 -15 35.68 -15 35 C-15.66 35 -16.32 35 -17 35 C-18.17 30.8 -19.33 26.6 -20.47 22.4 C-20.86 20.97 -21.26 19.55 -21.66 18.12 C-22.23 16.07 -22.79 14.01 -23.35 11.95 C-23.69 10.72 -24.03 9.48 -24.38 8.21 C-24.95 5.25 -25.06 3.76 -24 1 C-4.22 -2.11 -4.22 -2.11 0 0 Z " fill="#DFC6A6" transform="translate(716,517)"/>
<path d="M0 0 C-0.12 0.99 -0.23 1.98 -0.35 3.01 C-0.79 6.75 -1.22 10.49 -1.65 14.24 C-1.84 15.85 -2.03 17.46 -2.22 19.07 C-3.34 28.7 -4.36 38.32 -5 48 C-12.77 44.25 -19.08 38.37 -24.52 31.75 C-26.07 29.83 -26.07 29.83 -28.5 27.81 C-30 26 -30 26 -29.79 23.63 C-28.44 19.14 -25.18 16.34 -22 13 C-21.45 12.39 -20.9 11.77 -20.33 11.14 C-14.81 5.22 -8.36 -0.24 0 0 Z " fill="#896742" transform="translate(552,423)"/>
<path d="M0 0 C1.18 2.18 1.18 2.18 2.3 5.02 C2.7 6.04 3.1 7.07 3.51 8.12 C3.92 9.19 4.33 10.27 4.75 11.38 C5.39 12.98 5.39 12.98 6.04 14.61 C9.13 22.61 9.13 22.61 8 26 C5.63 27.03 5.63 27.03 2.56 27.94 C-3.09 29.69 -8.54 31.73 -14 34 C-18.32 30.09 -21.02 25.97 -23.81 20.88 C-24.22 20.16 -24.63 19.44 -25.04 18.71 C-28 13.39 -28 13.39 -28 10 C-23.9 8.13 -19.8 6.28 -15.69 4.44 C-14.52 3.9 -13.35 3.37 -12.15 2.82 C-11.03 2.32 -9.91 1.82 -8.76 1.31 C-7.73 0.84 -6.7 0.38 -5.64 -0.1 C-3 -1 -3 -1 0 0 Z " fill="#DFC6A6" transform="translate(623,495)"/>
<path d="M0 0 C2.03 2.94 2 4.28 2 8 C1.14 8.31 0.28 8.63 -0.61 8.95 C-14.8 14.2 -28.81 19.9 -42.84 25.56 C-46.14 26.89 -49.44 28.22 -52.75 29.54 C-53.74 29.95 -54.74 30.35 -55.77 30.76 C-69.08 36.11 -69.08 36.11 -73 37 C-75 36 -75 36 -76.19 33.06 C-77 30 -77 30 -76 28 C-74.1 27.12 -72.16 26.32 -70.2 25.57 C-68.99 25.11 -67.79 24.64 -66.54 24.16 C-65.26 23.67 -63.97 23.18 -62.69 22.69 C-60.21 21.73 -57.74 20.78 -55.26 19.82 C-54.04 19.35 -52.83 18.88 -51.57 18.4 C-47.22 16.69 -42.91 14.9 -38.6 13.09 C-34.74 11.47 -30.86 9.93 -26.97 8.4 C-23.42 6.99 -19.91 5.54 -16.41 4.03 C-15.64 3.7 -14.88 3.37 -14.09 3.04 C-12.6 2.4 -11.11 1.75 -9.63 1.1 C-5.99 -0.46 -3.76 -1.4 0 0 Z " fill="#886641" transform="translate(915,607)"/>
<path d="M0 0 C3.45 6.47 5.91 13.06 8.25 20 C8.61 21.06 8.98 22.12 9.35 23.21 C10.24 25.81 11.12 28.4 12 31 C8.06 32.72 4.16 34.36 0.06 35.69 C-0.71 35.94 -1.48 36.19 -2.28 36.45 C-2.85 36.63 -3.41 36.81 -4 37 C-9.04 32.58 -12.07 27.29 -15.38 21.5 C-15.93 20.56 -16.49 19.63 -17.07 18.66 C-17.59 17.75 -18.11 16.84 -18.65 15.91 C-19.12 15.08 -19.6 14.26 -20.09 13.42 C-21.21 10.45 -21.09 8.96 -20 6 C-17.52 4.6 -15.4 3.63 -12.75 2.69 C-12.08 2.42 -11.41 2.16 -10.72 1.89 C-7.05 0.5 -3.93 -0.33 0 0 Z " fill="#DFC6A6" transform="translate(637,534)"/>
<path d="M0 0 C0.87 -0.01 1.73 -0.02 2.62 -0.02 C5.57 0.47 6.27 0.96 8 3.38 C9.01 5.59 9.94 7.85 10.81 10.12 C11.33 11.47 11.85 12.81 12.37 14.15 C12.64 14.84 12.9 15.53 13.18 16.25 C14.79 20.42 16.49 24.56 18.17 28.71 C20 33.26 20 33.26 20 34.38 C19.37 34.36 18.74 34.35 18.09 34.34 C11.29 34.27 4.64 34.68 -2.13 35.35 C-3.08 35.36 -4.02 35.37 -5 35.38 C-9.66 30.72 -8.21 19.84 -8.25 13.5 C-8.27 12.56 -8.29 11.63 -8.31 10.66 C-8.32 9.77 -8.32 8.87 -8.33 7.95 C-8.34 7.14 -8.35 6.33 -8.36 5.5 C-7.55 0.67 -4.42 -0.04 0 0 Z " fill="#E0C7A7" transform="translate(735,465.625)"/>
<path d="M0 0 C4.08 0.69 7.76 1.91 11.62 3.38 C12.75 3.8 13.88 4.22 15.04 4.65 C19.54 6.7 19.54 6.7 21 9 C20.96 11.43 20.96 11.43 20.38 14.31 C20.07 15.89 20.07 15.89 19.75 17.5 C19.5 18.66 19.25 19.81 19 21 C18.73 22.29 18.46 23.58 18.19 24.9 C17.48 28.27 16.75 31.64 16 35 C12.88 35.97 10.48 35.99 7.25 35.56 C6.45 35.46 5.65 35.36 4.83 35.25 C4.22 35.17 3.62 35.09 3 35 C3 34.34 3 33.68 3 33 C2.01 32.67 1.02 32.34 0 32 C-3.2 28.89 -4.86 25.9 -5.56 21.5 C-5.13 14.68 -3.07 6.15 0 0 Z " fill="#E0C7A7" transform="translate(782,412)"/>
<path d="M0 0 C0.96 2.87 1.16 4.95 1.31 7.94 C2.38 20.21 6.85 29.38 15.81 37.69 C23.82 44.3 31.47 47.73 42 48 C50.05 47.18 57.06 45.67 63 40 C66.92 34.38 67.46 27.76 66.64 21.09 C66 17.48 65.21 13.92 64.4 10.35 C63.94 7.64 64.32 5.65 65 3 C67.17 5.17 67.64 6.44 68.56 9.31 C68.81 10.07 69.06 10.83 69.32 11.61 C71.59 19.56 72.96 29.6 69.56 37.38 C65.06 44.78 58.27 49.73 50 52 C38.1 54.08 27.79 51.72 17.73 45.21 C7.43 37.97 0.44 27.95 -2.55 15.76 C-3.15 12.1 -3.18 8.59 -3.01 4.9 C-3.01 4.27 -3 3.65 -3 3 C-3.5 2.5 -3.5 2.5 -4 2 C-19.7 2.06 -36.26 3.25 -51.19 8.45 C-53 9 -53 9 -56 9 C-55.67 8.01 -55.34 7.02 -55 6 C-43.32 0.86 -11.85 -8.29 0 0 Z " fill="#070E01" transform="translate(716,605)"/>
<path d="M0 0 C3.02 1.51 4.09 4.33 5.69 7.19 C6.04 7.8 6.38 8.42 6.74 9.06 C10.4 15.59 13.73 22.27 17 29 C12.29 32.04 12.29 32.04 9.69 31.69 C9.13 31.46 8.57 31.23 8 31 C7.67 31.99 7.34 32.98 7 34 C3.44 35.19 3.44 35.19 0 36 C0 35.34 0 34.68 0 34 C-0.61 33.75 -1.22 33.5 -1.85 33.24 C-4.32 31.81 -5.09 30.7 -6.47 28.23 C-6.9 27.48 -7.32 26.74 -7.76 25.98 C-8.19 25.2 -8.62 24.42 -9.06 23.62 C-9.93 22.1 -10.79 20.57 -11.66 19.04 C-12.06 18.33 -12.46 17.61 -12.88 16.88 C-14.03 14.86 -14.03 14.86 -15.81 12.65 C-17 11 -17 11 -17 8 C-14.21 6.63 -11.42 5.28 -8.62 3.94 C-7.83 3.55 -7.04 3.16 -6.22 2.76 C-5.46 2.39 -4.7 2.03 -3.91 1.65 C-2.86 1.14 -2.86 1.14 -1.79 0.62 C-1.2 0.42 -0.61 0.21 0 0 Z " fill="#DFC6A6" transform="translate(601,547)"/>
<path d="M0 0 C-0.33 5.61 -0.66 11.22 -1 17 C0.98 17.66 2.96 18.32 5 19 C5.67 20.33 6.33 21.67 7 23 C8.98 23.73 10.98 24.4 13 25 C12.87 28.4 12.66 31.79 12.44 35.19 C12.4 36.15 12.36 37.11 12.33 38.1 C11.83 44.98 11.83 44.98 9.52 47.83 C6.76 49.99 4.93 51.02 1.38 50.94 C0.64 50.63 -0.11 50.32 -0.88 50 C-2.02 49.57 -2.02 49.57 -3.18 49.12 C-5 48 -5 48 -6 45 C-5.78 42.39 -5.49 39.84 -5.12 37.25 C-5.03 36.56 -4.94 35.87 -4.85 35.16 C-4.76 34.47 -4.66 33.78 -4.57 33.08 C-4.48 32.4 -4.39 31.72 -4.3 31.02 C-4.01 29.05 -3.63 27.1 -3.25 25.15 C-3.17 24.11 -3.09 23.07 -3 22 C-5.76 19.24 -5.76 19.24 -9 17 C-11.31 13.74 -11.47 10.94 -11 7 C-9.3 3.84 -7.9 1.62 -4.94 -0.44 C-3 -1 -3 -1 0 0 Z " fill="#886642" transform="translate(562,431)"/>
<path d="M0 0 C1.34 1.5 1.34 1.5 2.51 3.42 C2.94 4.12 3.37 4.81 3.81 5.53 C4.24 6.26 4.68 7 5.12 7.75 C5.57 8.47 6.01 9.18 6.46 9.92 C8.65 13.52 10.6 17.01 12 21 C9.42 22.37 6.84 23.72 4.25 25.06 C3.16 25.65 3.16 25.65 2.04 26.24 C1.33 26.61 0.62 26.97 -0.11 27.35 C-0.76 27.69 -1.41 28.03 -2.08 28.38 C-4.47 29.15 -5.67 28.88 -8 28 C-11.21 25.26 -13.42 22.11 -15.69 18.56 C-16.29 17.64 -16.89 16.71 -17.51 15.75 C-18.95 13.09 -19.59 10.98 -20 8 C-17.42 6.46 -14.84 4.95 -12.25 3.44 C-11.16 2.78 -11.16 2.78 -10.04 2.11 C-9.33 1.7 -8.62 1.29 -7.89 0.87 C-6.92 0.3 -6.92 0.3 -5.92 -0.29 C-3.47 -1.2 -2.39 -1.04 0 0 Z " fill="#DFC6A6" transform="translate(583,514)"/>
<path d="M0 0 C0.75 1.72 1.49 3.45 2.14 5.21 C3.67 8.39 5.92 9.49 9 11 C11.7 11.57 14.23 11.81 17 12 C18.01 16.35 18.33 19.09 16 23 C12.19 26.45 8.21 26.5 3.29 26.36 C0.14 25.86 -0.93 24.35 -3 22 C-4.9 21.54 -4.9 21.54 -7 21.25 C-9.6 20.71 -10.7 20.36 -12.44 18.31 C-14.24 15 -15 12.6 -15 8.81 C-13.48 4.52 -11.55 1.87 -7.56 -0.38 C-4.45 -1.13 -2.95 -1.32 0 0 Z " fill="#101502" transform="translate(632,394)"/>
<path d="M0 0 C0.61 0.83 0.61 0.83 1.23 1.67 C3.21 4.28 5.28 6.79 7.38 9.31 C16.82 20.87 16.82 20.87 19.31 28.2 C20.18 30.46 21.41 32.19 23 34 C21.68 34.66 20.36 35.32 19 36 C18.13 35.38 17.27 34.76 16.38 34.12 C10.33 30.32 5.03 29.35 -2 30 C-5.41 30.88 -5.41 30.88 -8 32 C-9.07 28.73 -8.9 26.56 -8.11 23.23 C-7.79 21.87 -7.79 21.87 -7.46 20.48 C-7.22 19.54 -6.99 18.59 -6.75 17.62 C-6.53 16.69 -6.31 15.76 -6.09 14.8 C-3.31 3.31 -3.31 3.31 0 0 Z " fill="#E0C7A7" transform="translate(843,438)"/>
<path d="M0 0 C2.19 -0.38 2.19 -0.38 5 0 C10.45 5.17 12.49 11.64 15.06 18.56 C16.03 21.09 16.99 23.61 17.96 26.13 C18.21 26.78 18.46 27.42 18.71 28.09 C21.41 35.11 24.29 42.06 27.19 49 C31.09 58.37 34.94 67.75 38.68 77.19 C40.23 81.14 40.23 81.14 42 85 C39.19 84.83 39.19 84.83 36 84 C34.3 81.73 34.3 81.73 32.98 78.75 C32.48 77.66 31.98 76.57 31.47 75.44 C30.99 74.31 30.5 73.17 30 72 C29.54 70.96 29.07 69.91 28.6 68.84 C27.16 65.57 25.76 62.29 24.38 59 C23.6 57.17 22.82 55.33 22.04 53.5 C21.5 52.24 20.97 50.98 20.43 49.72 C18.56 45.3 16.67 40.89 14.77 36.48 C0 2.21 0 2.21 0 0 Z " fill="#977F5D" transform="translate(760,445)"/>
<path d="M0 0 C3.7 2.47 4.35 4.97 5.69 9 C5.91 9.64 6.14 10.28 6.37 10.95 C8 15.68 8 15.68 8 18 C7.06 18.36 6.11 18.73 5.14 19.1 C3.84 19.61 2.55 20.12 1.25 20.62 C0.57 20.89 -0.1 21.15 -0.8 21.43 C-6.24 23.6 -11.33 26.19 -16.41 29.09 C-19 30 -19 30 -21.77 29.47 C-24 28 -24 28 -24.81 25.38 C-24.87 24.59 -24.94 23.81 -25 23 C-24.27 22.49 -23.55 21.98 -22.8 21.45 C-9.71 12.29 -9.71 12.29 0 0 Z " fill="#81765B" transform="translate(609,463)"/>
<path d="M0 0 C3.53 1.28 6.65 2.92 9.86 4.87 C20.61 11.45 20.61 11.45 32.81 12.56 C33.53 12.37 34.25 12.19 35 12 C37 15 37 15 37 18 C34.61 19.29 32.21 20.59 29.81 21.88 C29.14 22.24 28.47 22.6 27.77 22.98 C24.24 24.87 20.77 26.61 17 28 C17 27.34 17 26.68 17 26 C16.4 25.75 15.79 25.5 15.17 25.24 C12.66 23.8 11.77 22.57 10.25 20.12 C8.48 17.32 6.7 14.56 4.8 11.84 C4.06 10.78 3.32 9.72 2.56 8.62 C1.86 7.63 1.16 6.63 0.44 5.6 C-0.03 4.74 -0.51 3.88 -1 3 C-0.67 2.01 -0.34 1.02 0 0 Z " fill="#7F7459" transform="translate(537,483)"/>
<path d="M0 0 C0 2.97 0 5.94 0 9 C-4.19 10.29 -8.37 11.58 -12.56 12.88 C-13.74 13.24 -14.93 13.6 -16.14 13.98 C-21.75 15.71 -27.35 17.42 -33 19 C-36.01 14.92 -37.34 12 -38 7 C-36.89 6.85 -35.77 6.71 -34.62 6.55 C-25.63 5.26 -17.47 3.49 -9.13 -0.19 C-4.4 -2.2 -4.4 -2.2 0 0 Z " fill="#DFC6A6" transform="translate(664,456)"/>
<path d="M0 0 C1.07 -0.01 2.13 -0.02 3.23 -0.04 C4.26 -0.04 5.28 -0.04 6.34 -0.04 C7.75 -0.05 7.75 -0.05 9.19 -0.06 C11.62 0.19 11.62 0.19 14.62 2.19 C15.01 4.96 15.23 7.53 15.31 10.31 C15.36 11.44 15.36 11.44 15.42 12.6 C15.5 14.46 15.56 16.32 15.62 18.19 C14 17.71 12.37 17.23 10.75 16.75 C9.85 16.48 8.94 16.22 8.01 15.94 C5.62 15.19 5.62 15.19 3.62 14.19 C-1.22 14.03 -5.6 14.23 -10.38 15.19 C-11.96 10.33 -12.69 6.36 -12.38 1.19 C-9.91 -1.28 -3.32 0 0 0 Z " fill="#DFC6A6" transform="translate(742.375,513.8125)"/>
<path d="M0 0 C2.38 1.67 4.44 3.39 6.4 5.54 C8.23 7.21 9.81 7.78 12.12 8.62 C14.67 9.85 15.75 10.42 16.88 13.05 C17.53 17.17 17.14 19.66 15.56 23.56 C12.84 26.15 12.4 26.39 8.88 26.5 C5 26 5 26 3 24 C3 23.01 3 22.02 3 21 C0.69 20.34 -1.62 19.68 -4 19 C-3.5 10.09 -3.5 10.09 -3 1 C-2.01 0.67 -1.02 0.34 0 0 Z " fill="#4C462B" transform="translate(564,429)"/>
<path d="M0 0 C7.39 1.95 11.18 9 15.02 15.11 C17.57 20.03 17.63 25.57 17 31 C14.54 35.66 12.05 39.32 7 41 C-2.3 42.15 -9.2 40.12 -17 35 C-18.37 33.71 -19.72 32.39 -21 31 C-20.09 31.29 -20.09 31.29 -19.16 31.59 C-6.13 36.06 -6.13 36.06 7 34 C8.76 31.57 8.76 31.57 9 28 C9.13 27.15 9.25 26.3 9.38 25.43 C10.18 15.84 6.03 9.72 1 2 C0.67 1.34 0.34 0.68 0 0 Z " fill="#725938" transform="translate(757,603)"/>
<path d="M0 0 C5.77 5.3 7.85 11.55 8.39 19.29 C8.44 20.8 8.48 22.3 8.5 23.81 C8.52 24.53 8.54 25.25 8.56 25.99 C8.48 32.64 5.87 36.17 1.25 40.69 C-5.47 45.47 -13.73 47.99 -22 47 C-32.8 44.11 -41.93 38.76 -49 30 C-50.23 27.25 -50.23 27.25 -51 25 C-46.3 26.28 -43.78 29 -40.55 32.44 C-39.06 34.1 -39.06 34.1 -37 35 C-37 35.66 -37 36.32 -37 37 C-35.33 37.67 -33.67 38.33 -32 39 C-30.69 39.53 -30.69 39.53 -29.35 40.07 C-20.11 43.64 -14.16 43.45 -5 40 C-4.03 39.69 -3.06 39.38 -2.06 39.06 C0.52 37.73 0.98 36.67 2 34 C2.33 33.4 2.65 32.79 2.99 32.17 C5.19 27.46 5.93 22.13 4.43 17.09 C3.43 14.38 2.32 11.74 1.1 9.13 C-1.06 4.44 -1.06 4.44 -0.69 1.56 C-0.46 1.04 -0.23 0.53 0 0 Z " fill="#070D00" transform="translate(661,616)"/>
<path d="M0 0 C6.48 -0.37 6.48 -0.37 8.55 1.09 C10.59 3.78 11.61 6.6 12.81 9.75 C13.33 11.09 13.85 12.43 14.37 13.77 C14.64 14.47 14.9 15.16 15.18 15.87 C16.79 20.05 18.49 24.19 20.17 28.34 C22 32.89 22 32.89 22 34 C20.38 34.03 18.75 34.05 17.12 34.06 C16.22 34.07 15.32 34.09 14.38 34.1 C12 34 12 34 10 33 C9.16 31.01 9.16 31.01 8.34 28.41 C7.89 26.98 7.89 26.98 7.43 25.53 C7.13 24.53 6.82 23.53 6.5 22.5 C6.04 21.05 6.04 21.05 5.57 19.56 C3.75 13.75 2.29 7.95 1 2 C0.67 1.34 0.34 0.68 0 0 Z " fill="#7F7459" transform="translate(733,466)"/>
<path d="M0 0 C0.79 0.36 1.59 0.71 2.41 1.08 C3.2 1.42 3.99 1.77 4.81 2.12 C6.91 3.33 6.91 3.33 8.91 6.33 C8.49 8.78 8.49 8.78 7.57 11.65 C7.25 12.68 6.93 13.71 6.59 14.77 C6.07 16.38 6.07 16.38 5.53 18.02 C5.19 19.1 4.85 20.18 4.49 21.3 C3.64 23.98 2.78 26.65 1.91 29.33 C-3.04 27.35 -3.04 27.35 -8.09 25.33 C-7.52 16.87 -6.5 8.49 -4.09 0.33 C-2.09 -0.67 -2.09 -0.67 0 0 Z " fill="#DFC6A6" transform="translate(820.09375,425.671875)"/>
<path d="M0 0 C2.38 1.08 4.6 2.18 6.88 3.44 C7.52 3.79 8.16 4.13 8.82 4.49 C15.79 8.34 22.56 12.55 29.25 16.87 C30.42 17.63 31.61 18.38 32.8 19.12 C34.23 20.02 35.62 21.01 37 22 C37 22.66 37 23.32 37 24 C37.99 24 38.98 24 40 24 C39.5 25.49 39.5 25.49 39 27 C33.7 27.46 30.83 26.15 26.31 23.44 C25.7 23.07 25.08 22.71 24.45 22.33 C19.92 19.62 15.45 16.81 11.02 13.93 C8.62 12.39 6.2 10.89 3.76 9.41 C3.03 8.96 2.29 8.51 1.53 8.05 C0.07 7.15 -1.4 6.26 -2.87 5.38 C-4.61 4.3 -6.31 3.16 -8 2 C-8 1.34 -8 0.68 -8 0 C-5.03 -1.48 -3.2 -0.75 0 0 Z " fill="#98805E" transform="translate(746,543)"/>
<path d="M0 0 C-0.28 3.29 -0.57 6.58 -0.88 9.88 C-0.99 11.28 -0.99 11.28 -1.11 12.71 C-1.2 13.61 -1.28 14.51 -1.37 15.43 C-1.48 16.67 -1.48 16.67 -1.59 17.94 C-2 20 -2 20 -4 22 C-8.8 19.46 -12.23 16.99 -16 13 C-16.33 13 -16.66 13 -17 13 C-16.67 9.37 -16.34 5.74 -16 2 C-16.66 1.67 -17.32 1.34 -18 1 C-4.74 -2.37 -4.74 -2.37 0 0 Z " fill="#98805E" transform="translate(580,417)"/>
<path d="M0 0 C0.86 3.43 0.98 5.62 0 9 C-4.21 9.51 -8.42 10 -12.62 10.5 C-13.81 10.64 -15 10.79 -16.23 10.93 C-17.38 11.07 -18.54 11.2 -19.73 11.34 C-21.31 11.53 -21.31 11.53 -22.93 11.72 C-25.97 12 -28.95 12.05 -32 12 C-32.69 9.69 -32.69 9.69 -33 7 C-31.35 4.68 -30.2 4.05 -27.44 3.29 C-26.44 3.14 -25.44 2.99 -24.41 2.83 C-22.77 2.58 -22.77 2.58 -21.09 2.31 C-19.95 2.15 -18.8 1.98 -17.62 1.81 C-16.49 1.64 -15.35 1.46 -14.18 1.28 C-9.41 0.55 -4.83 -0.11 0 0 Z " fill="#CCB697" transform="translate(765,410)"/>
<path d="M0 0 C0.33 1.65 0.66 3.3 1 5 C0.34 5 -0.32 5 -1 5 C-1.06 6.07 -1.12 7.14 -1.18 8.25 C-1.27 9.64 -1.35 11.04 -1.44 12.44 C-1.48 13.14 -1.52 13.85 -1.56 14.58 C-1.89 19.89 -1.89 19.89 -3 21 C-8.15 21.08 -8.15 21.08 -11 20 C-13.97 16.65 -15 13.24 -15 8.81 C-13.48 4.52 -11.55 1.87 -7.56 -0.38 C-4.67 -1.08 -2.84 -0.81 0 0 Z " fill="#333018" transform="translate(632,394)"/>
<path d="M0 0 C3.4 3.1 4.8 5.25 6 9.69 C6 13 6 13 5.06 14.94 C1.75 16.64 -1.42 16.6 -5 16 C-9.21 14.05 -10.64 12.8 -12.56 8.56 C-13 5 -13 5 -11.81 2.12 C-8.37 -1.91 -4.81 -1.24 0 0 Z " fill="#101502" transform="translate(753,613)"/>
<path d="M0 0 C4.08 0.69 7.76 1.91 11.62 3.38 C12.75 3.8 13.88 4.22 15.04 4.65 C19.62 6.74 19.62 6.74 21 9 C20.86 11.92 20.86 11.92 20.19 15.19 C19.97 16.27 19.76 17.36 19.54 18.48 C19.36 19.31 19.18 20.14 19 21 C18.51 20.41 18.02 19.82 17.51 19.21 C13.72 15.87 9.28 14.48 4.58 12.73 C2.46 11.88 2.46 11.88 -1 10 C-2.34 6.75 -2.17 5.52 -1.06 2.19 C-0.71 1.47 -0.36 0.74 0 0 Z " fill="#CBB596" transform="translate(782,412)"/>
<path d="M0 0 C6.26 2.61 10.39 8.94 12.94 15.06 C14.67 20.5 14.96 25.05 12.38 30.31 C8.85 34.3 5.91 35.79 0.62 36.38 C-5.62 35.73 -10.76 33.44 -16 30 C-13.11 28.55 -11.15 29.71 -8.16 30.51 C-4.2 31.41 -0.55 31.5 3.31 30.25 C6.02 28.24 6.85 25.9 7.41 22.62 C7.7 14.49 5.03 8.95 1 2 C0.67 1.34 0.34 0.68 0 0 Z " fill="#725938" transform="translate(644,615)"/>
<path d="M0 0 C4.69 0.52 9.05 1.86 13.5 3.38 C14.46 3.69 14.46 3.69 15.43 4.01 C18.5 5.04 21.34 6.18 24.23 7.65 C27.64 9.31 30.25 9.23 34 9 C33.67 10.32 33.34 11.64 33 13 C15.7 16.62 15.7 16.62 10.19 13.31 C7.97 10.97 5.98 8.54 4 6 C2.35 4.31 0.69 2.64 -1 1 C-0.67 0.67 -0.34 0.34 0 0 Z " fill="#E0C7A7" transform="translate(740,382)"/>
<path d="M0 0 C2.19 0 2.19 0 5 1 C10.56 8.43 13.45 17.22 16.75 25.81 C17.34 27.34 17.94 28.87 18.54 30.4 C22.71 41.12 22.71 41.12 24 45 C21.83 44.49 20 44 18 43 C17.13 41.35 16.35 39.67 15.61 37.96 C14.92 36.39 14.92 36.39 14.22 34.78 C13.73 33.66 13.25 32.53 12.75 31.38 C12.26 30.24 11.76 29.11 11.26 27.94 C2.81 8.44 2.81 8.44 0 0 Z " fill="#98805E" transform="translate(845,482)"/>
<path d="M0 0 C3.25 0.12 3.25 0.12 7 1 C10 4.86 11.96 8.88 13.8 13.39 C14.28 14.57 14.76 15.76 15.26 16.98 C15.75 18.2 16.24 19.43 16.75 20.69 C17.26 21.94 17.77 23.18 18.29 24.43 C22 33.61 22 33.61 22 37 C19.69 36.81 19.69 36.81 17 36 C13.77 31.49 11.74 26.18 9.5 21.12 C9.11 20.25 8.72 19.38 8.32 18.48 C7.55 16.78 6.8 15.07 6.04 13.36 C5.39 11.87 4.72 10.39 4.05 8.91 C2.78 6.08 2 4.15 2 1 C1.34 0.67 0.68 0.34 0 0 Z " fill="#98805E" transform="translate(878,482)"/>
<path d="M0 0 C3.54 0.58 5.21 1.83 7.71 4.35 C8.74 5.38 8.74 5.38 9.79 6.43 C10.86 7.52 10.86 7.52 11.94 8.62 C12.64 9.32 13.34 10.02 14.07 10.75 C18.19 14.91 21.73 19.13 25 24 C22.45 26.79 20.78 27.49 17 28 C17 27.34 17 26.68 17 26 C16.39 25.75 15.78 25.5 15.15 25.24 C12.68 23.81 11.91 22.7 10.53 20.23 C10.1 19.48 9.68 18.74 9.24 17.98 C8.81 17.2 8.38 16.42 7.94 15.62 C7.07 14.1 6.21 12.57 5.34 11.04 C4.94 10.33 4.54 9.61 4.12 8.88 C2.97 6.86 2.97 6.86 1.19 4.65 C0 3 0 3 0 0 Z " fill="#80755A" transform="translate(584,555)"/>
<path d="M0 0 C4.29 0.66 8.58 1.32 13 2 C12.67 5.63 12.34 9.26 12 13 C10.07 13.84 8.13 14.67 6.19 15.5 C5.11 15.96 4.03 16.43 2.92 16.91 C0 18 0 18 -3 18 C-2.89 15.94 -2.76 13.87 -2.62 11.81 C-2.56 10.66 -2.49 9.52 -2.41 8.33 C-2 5 -2 5 0 0 Z " fill="#725938" transform="translate(631,419)"/>
<path d="M0 0 C2.25 0.12 2.25 0.12 5 1 C7.95 4.91 9.92 8.84 11.69 13.39 C12.16 14.6 12.63 15.8 13.12 17.04 C13.35 17.66 13.59 18.28 13.84 18.92 C14.56 20.8 15.29 22.67 16.02 24.55 C18.52 30.98 20.89 37.43 23 44 C19.68 43.07 18.29 42.46 16.41 39.5 C15.97 38.46 15.52 37.42 15.06 36.36 C14.56 35.2 14.06 34.05 13.54 32.86 C13.03 31.65 12.52 30.44 12 29.19 C11.49 28.02 10.98 26.85 10.46 25.64 C7.46 18.67 4.66 11.64 1.98 4.54 C1.07 2.06 1.07 2.06 0 0 Z " fill="#977F5D" transform="translate(812,485)"/>
<path d="M0 0 C2.88 2.18 4.85 4.56 6 8 C5.68 11.35 5.41 12.59 3 15 C-1 15.55 -2.76 15.14 -6.31 13.12 C-9 11 -9 11 -10 9 C-10.44 3.78 -10.44 3.78 -8.94 1.12 C-5.85 -0.67 -3.49 -0.43 0 0 Z " fill="#101502" transform="translate(639,623)"/>
<path d="M0 0 C0.5 7.92 0.5 7.92 1 16 C-8.75 13.12 -8.75 13.12 -11 12 C-15.84 11.84 -20.23 12.05 -25 13 C-25.33 10.69 -25.66 8.38 -26 6 C-18.2 5.47 -12.91 6.41 -6 10 C-5.01 10.33 -4.02 10.66 -3 11 C-3.5 9.93 -3.99 8.86 -4.5 7.75 C-5.89 4.75 -6 3.54 -6 0 C-6.66 -0.33 -7.32 -0.66 -8 -1 C-5 -2 -5 -2 0 0 Z " fill="#80755A" transform="translate(757,516)"/>
<path d="M0 0 C0.03 2.71 0.05 5.42 0.06 8.12 C0.07 8.89 0.08 9.65 0.09 10.43 C0.11 14.74 -0.14 18.76 -1 23 C-3.31 23.33 -5.62 23.66 -8 24 C-8.17 21.06 -8.33 18.13 -8.5 15.19 C-8.57 13.94 -8.57 13.94 -8.64 12.66 C-8.69 11.86 -8.73 11.06 -8.78 10.23 C-8.82 9.49 -8.87 8.75 -8.91 7.99 C-8.98 6.33 -9 4.66 -9 3 C-3.38 0 -3.38 0 0 0 Z " fill="#977F5D" transform="translate(632,370)"/>
<path d="M0 0 C3.12 1.9 4.72 3.36 6.21 6.72 C7.12 10.5 6.82 13.07 6.12 16.88 C5.92 18.03 5.72 19.18 5.51 20.37 C5.26 21.67 5.26 21.67 5 23 C0.54 21.02 0.54 21.02 -4 19 C-3.5 10.09 -3.5 10.09 -3 1 C-2.01 0.67 -1.02 0.34 0 0 Z " fill="#101502" transform="translate(564,429)"/>
<path d="M0 0 C-0.33 6.27 -0.66 12.54 -1 19 C-2.32 19.33 -3.64 19.66 -5 20 C-8.49 17 -10.79 14.89 -11.31 10.25 C-10.92 6.14 -9.59 4.17 -7 1 C-4.01 -1.09 -3.56 -1.19 0 0 Z " fill="#4D472C" transform="translate(562,431)"/>
<path d="M0 0 C0.79 0.36 1.59 0.71 2.41 1.08 C3.2 1.42 3.99 1.77 4.81 2.12 C6.91 3.33 6.91 3.33 8.91 6.33 C8.45 8.59 8.45 8.59 7.53 11.02 C7.23 11.82 6.94 12.63 6.63 13.46 C6.27 14.39 6.27 14.39 5.91 15.33 C4.28 14.9 2.65 14.46 1.03 14.02 C0.13 13.77 -0.78 13.53 -1.71 13.28 C-4.09 12.33 -4.09 12.33 -6.09 9.33 C-5.92 7.1 -5.92 7.1 -5.34 4.7 C-5.16 3.91 -4.98 3.11 -4.8 2.29 C-3.78 -0.55 -2.85 -0.92 0 0 Z " fill="#CBB596" transform="translate(820.09375,425.671875)"/>
<path d="M0 0 C0.98 0.19 1.97 0.39 2.98 0.59 C3.73 0.75 4.48 0.9 5.25 1.06 C5.25 1.72 5.25 2.38 5.25 3.06 C4.3 2.98 3.35 2.9 2.38 2.81 C-3.76 2.82 -9.65 5.18 -14.19 9.25 C-16.29 13.03 -17.56 16.92 -18.75 21.06 C-19.08 20.4 -19.41 19.74 -19.75 19.06 C-20.41 19.06 -21.07 19.06 -21.75 19.06 C-21.11 7.75 -21.11 7.75 -17.75 4.06 C-11.76 0.31 -7.02 -1.42 0 0 Z " fill="#B99D76" transform="translate(746.75,597.9375)"/>
<path d="M0 0 C-2.24 7.65 -5.06 13.48 -11 19 C-12.23 13.33 -12.09 7.76 -12 2 C-10.57 1.47 -9.13 0.95 -7.69 0.44 C-6.49 0 -6.49 0 -5.26 -0.44 C-3 -1 -3 -1 0 0 Z " fill="#80755A" transform="translate(687,426)"/>
<path d="M0 0 C2.97 0.5 2.97 0.5 6 1 C5.72 4.46 5.43 7.92 5.12 11.38 C5.05 12.36 4.97 13.34 4.89 14.36 C4.8 15.3 4.72 16.24 4.63 17.21 C4.56 18.08 4.49 18.95 4.41 19.85 C4 22 4 22 2 24 C1.01 24 0.02 24 -1 24 C-2.32 20.14 -1.92 16.59 -1.62 12.56 C-1.53 11.26 -1.44 9.97 -1.35 8.63 C-1.07 5.68 -0.66 2.89 0 0 Z " fill="#98805E" transform="translate(569,455)"/>
<path d="M0 0 C0.66 0.66 1.32 1.32 2 2 C5.6 1.68 5.6 1.68 9 1 C9.06 1.61 9.12 2.23 9.18 2.86 C9.27 3.67 9.35 4.48 9.44 5.31 C9.52 6.11 9.6 6.91 9.68 7.74 C9.95 10.16 9.95 10.16 11 13 C9 14.25 9 14.25 6 15 C3.1 13.96 0.69 12.55 -2 11 C-1.34 7.37 -0.68 3.74 0 0 Z " fill="#735A38" transform="translate(558,467)"/>
<path d="M0 0 C2.63 3.95 1.8 6.74 1.12 11.19 C1.02 11.94 0.92 12.69 0.81 13.46 C0.55 15.31 0.28 17.15 0 19 C-2 19 -2 19 -4.56 16.5 C-5.37 15.68 -6.17 14.85 -7 14 C-7.33 14 -7.66 14 -8 14 C-7.67 10.37 -7.34 6.74 -7 3 C-7.66 2.67 -8.32 2.34 -9 2 C-6.03 1.34 -3.06 0.68 0 0 Z " fill="#896742" transform="translate(571,416)"/>
<path d="M0 0 C0.99 0 1.98 0 3 0 C4.81 6.79 4.44 14.18 3 21 C2.01 21.33 1.02 21.66 0 22 C-2 21 -2 21 -3 18 C-3.56 11.24 -3.2 6.01 0 0 Z " fill="#7F7459" transform="translate(715,531)"/>
<path d="M0 0 C0 0.66 0 1.32 0 2 C-0.74 2.11 -1.47 2.22 -2.23 2.33 C-9.65 3.35 -9.65 3.35 -16 7 C-18.44 10.92 -19.46 14.43 -20 19 C-20.33 18.01 -20.66 17.02 -21 16 C-21.66 16 -22.32 16 -23 16 C-22.21 6.73 -22.21 6.73 -19 3 C-12.98 -1.23 -7.08 -2.36 0 0 Z " fill="#B99D76" transform="translate(638,611)"/>
<path d="M0 0 C0 1.65 0 3.3 0 5 C-14.36 5.99 -14.36 5.99 -29 7 C-28.01 6.67 -27.02 6.34 -26 6 C-26 5.34 -26 4.68 -26 4 C-22.61 3.13 -19.21 2.28 -15.81 1.44 C-14.85 1.19 -13.89 0.94 -12.9 0.69 C-11.97 0.46 -11.04 0.23 -10.08 -0 C-9.23 -0.22 -8.37 -0.43 -7.5 -0.65 C-4.74 -1.04 -2.68 -0.69 0 0 Z " fill="#CCB697" transform="translate(718,419)"/>
<path d="M0 0 C0.99 0.33 1.98 0.66 3 1 C4.19 4.56 4.19 4.56 5 8 C3.07 8.87 1.13 9.72 -0.81 10.56 C-1.89 11.04 -2.97 11.51 -4.08 12 C-7 13 -7 13 -10 12 C-8.44 7.78 -5.41 5.77 -2 3 C-1.34 2.01 -0.68 1.02 0 0 Z " fill="#DFC6A6" transform="translate(612,473)"/>
<path d="M0 0 C0.33 0 0.66 0 1 0 C0.97 12.71 0.97 12.71 -1.37 15.82 C-3.12 16.95 -4.84 18 -7 18 C-6.97 17.06 -6.97 17.06 -6.93 16.1 C-6.91 15.28 -6.89 14.47 -6.88 13.62 C-6.85 12.81 -6.83 12 -6.8 11.16 C-6.79 8.79 -6.79 8.79 -9 7 C-7.89 6.59 -6.77 6.18 -5.62 5.75 C-3.01 4.64 -2.17 4.25 -0.56 1.81 C-0.38 1.21 -0.19 0.62 0 0 Z " fill="#896742" transform="translate(650,413)"/>
<path d="M0 0 C0.33 5.28 0.66 10.56 1 16 C-1.31 15.34 -3.62 14.68 -6 14 C-5.67 13.01 -5.34 12.02 -5 11 C-4.34 11 -3.68 11 -3 11 C-3.5 9.93 -3.99 8.86 -4.5 7.75 C-5.89 4.75 -6 3.54 -6 0 C-6.66 -0.33 -7.32 -0.66 -8 -1 C-5 -2 -5 -2 0 0 Z " fill="#84785C" transform="translate(757,516)"/>
<path d="M0 0 C1.98 0.5 1.98 0.5 4 1 C5.45 9.19 5.45 9.19 3.56 12.56 C3.05 13.04 2.53 13.51 2 14 C1.01 13.67 0.02 13.34 -1 13 C-0.67 8.71 -0.34 4.42 0 0 Z " fill="#101502" transform="translate(576,439)"/>
<path d="M0 0 C1.63 0.64 3.25 1.29 4.88 1.94 C5.78 2.3 6.68 2.66 7.62 3.03 C10 4 10 4 12 5 C12 5.66 12 6.32 12 7 C12.66 7.33 13.32 7.66 14 8 C9.25 11 9.25 11 7 11 C7 10.34 7 9.68 7 9 C6.4 8.77 5.8 8.55 5.19 8.31 C2.41 6.64 1.44 4.87 0 2 C0 1.34 0 0.68 0 0 Z " fill="#DFC6A6" transform="translate(547,500)"/>
<path d="M0 0 C6.88 0.88 6.88 0.88 8 2 C8.04 3.67 8.04 5.33 8 7 C5.36 7.66 2.72 8.32 0 9 C-1.12 7.31 -1.12 7.31 -2 5 C-1.12 2.25 -1.12 2.25 0 0 Z " fill="#977F5D" transform="translate(622,414)"/>
<path d="M0 0 C0.99 0.66 1.98 1.32 3 2 C-6.02 4.19 -14.85 4.98 -24 3 C-20.85 0.9 -20.19 0.76 -16.62 0.84 C-15.36 0.86 -15.36 0.86 -14.08 0.87 C-13.21 0.89 -12.34 0.92 -11.44 0.94 C-9.71 0.97 -7.98 1 -6.25 1.03 C-5.48 1.05 -4.71 1.06 -3.92 1.08 C-1.91 1.13 -1.91 1.13 0 0 Z " fill="#E0C7A7" transform="translate(578,639)"/>
<path d="M0 0 C0.33 0 0.66 0 1 0 C1.42 7.25 0.44 13.17 -2 20 C-2.66 20 -3.32 20 -4 20 C-3.91 17.79 -3.8 15.58 -3.69 13.38 C-3.63 12.15 -3.57 10.92 -3.51 9.65 C-2.98 5.86 -1.89 3.3 0 0 Z " fill="#98805E" transform="translate(653,380)"/>
<path d="M0 0 C1.98 0 3.96 0 6 0 C7.01 4.34 7.25 7.06 5 11 C4.01 11.33 3.02 11.66 2 12 C2 8.37 2 4.74 2 1 C1.34 0.67 0.68 0.34 0 0 Z " fill="#353219" transform="translate(643,406)"/>
<path d="M0 0 C0.66 0 1.32 0 2 0 C1.8 0.6 1.59 1.21 1.38 1.83 C1.11 2.63 0.84 3.43 0.56 4.25 C0.3 5.04 0.03 5.83 -0.25 6.64 C-0.92 8.75 -1.49 10.85 -2 13 C-3.32 12.67 -4.64 12.34 -6 12 C-5.01 9.03 -4.02 6.06 -3 3 C-2.34 3 -1.68 3 -1 3 C-0.67 2.01 -0.34 1.02 0 0 Z " fill="#746A4F" transform="translate(740,439)"/>
<path d="M0 0 C2 -0.04 4 -0.04 6 0 C7 1 7 1 7.06 4.56 C7.04 5.7 7.02 6.83 7 8 C4.14 6.72 1.98 5.47 0 3 C0 2.01 0 1.02 0 0 Z " fill="#725938" transform="translate(609,429)"/>
<path d="M0 0 C1.42 0.77 2.83 1.54 4.25 2.31 C5.04 2.74 5.83 3.17 6.64 3.61 C8.9 4.94 10.94 6.39 13 8 C12.67 9.32 12.34 10.64 12 12 C9.99 10.38 8 8.76 6 7.12 C5.43 6.66 4.86 6.2 4.27 5.73 C2.81 4.53 1.4 3.27 0 2 C0 1.34 0 0.68 0 0 Z " fill="#725938" transform="translate(533,459)"/>
<path d="M0 0 C4.38 1.09 7.5 2.17 11 5 C9.38 5.08 7.75 5.14 6.12 5.19 C5.22 5.22 4.32 5.26 3.38 5.29 C2.2 5.15 2.2 5.15 1 5 C0.34 4.01 -0.32 3.02 -1 2 C-0.67 1.34 -0.34 0.68 0 0 Z " fill="#D2BB9D" transform="translate(809,465)"/>
</svg>
